<svg width="24" height="24" viewBox="0 0 24 24" fill="none" xmlns="http://www.w3.org/2000/svg">
<path d="M23.2408 21.7224L21.6004 16.8H19.8004L20.8 21.6H3.20083L4.20043 16.8H2.40043L0.758833 21.7224C0.342433 22.9752 1.08043 24 2.40043 24H21.6004C22.9204 24 23.6584 22.9752 23.2408 21.7224ZM18.0004 6C18.0004 4.4087 17.3683 2.88258 16.2431 1.75736C15.1179 0.632141 13.5917 0 12.0004 0C10.4091 0 8.88301 0.632141 7.75779 1.75736C6.63257 2.88258 6.00043 4.4087 6.00043 6C6.00043 11.73 12.0004 18 12.0004 18C12.0004 18 18.0004 11.73 18.0004 6ZM8.76043 6.072C8.76075 5.21291 9.10225 4.38911 9.70983 3.78175C10.3174 3.17439 11.1413 2.8332 12.0004 2.8332C12.8596 2.8332 13.6835 3.17449 14.291 3.782C14.8985 4.3895 15.2398 5.21346 15.2398 6.0726C15.2398 6.93174 14.8985 7.7557 14.291 8.3632C13.6835 8.97071 12.8596 9.312 12.0004 9.312C11.1411 9.312 10.317 8.97064 9.70941 8.36303C9.10179 7.75541 8.76043 6.9313 8.76043 6.072Z" fill="white"/>
</svg>
