<svg width="1680" height="484" viewBox="0 0 1680 484" fill="none" xmlns="http://www.w3.org/2000/svg" id='dektop-performers-svg'>

<g filter="url(#filter0_g_7518_18302)">
<path d="M-11.5125 459.475L-23.6341 471.597L-47.8781 447.353L-35.7565 435.231L-11.5125 459.475ZM-47.8774 471.597L-59.9997 483.719L-72.1221 471.597L-59.9997 459.474L-47.8774 471.597ZM0.609819 423.109L-11.5125 435.232L-23.6348 423.109L-11.5125 410.987L0.609819 423.109ZM-47.8781 447.353L-59.9997 459.474L-72.1214 447.353L-59.9997 435.231L-47.8781 447.353ZM-23.6348 423.109L-35.7565 435.231L-47.8781 423.109L-35.7565 410.988L-23.6348 423.109ZM-72.1214 447.353L-96.3653 471.597L-108.487 459.475L-84.243 435.231L-72.1214 447.353ZM-11.5125 386.744L-35.7565 410.988L-47.8781 398.866L-23.6341 374.622L-11.5125 386.744ZM-72.1214 423.109L-84.243 435.231L-96.3646 423.109L-84.243 410.988L-72.1214 423.109ZM-47.8781 398.866L-59.9997 410.988L-72.1214 398.866L-59.9997 386.744L-47.8781 398.866ZM-96.3646 423.109L-108.487 435.232L-120.609 423.109L-108.487 410.987L-96.3646 423.109ZM-72.1214 398.866L-84.243 410.988L-108.487 386.744L-96.3653 374.622L-72.1214 398.866ZM-47.8774 374.622L-59.9997 386.744L-72.1221 374.622L-59.9997 362.5L-47.8774 374.622Z" fill="#FFF846"/>
</g>

<g filter="url(#filter1_g_7518_18302)">
<path d="M108.487 459.475L96.3659 471.597L72.1219 447.353L84.2435 435.231L108.487 459.475ZM72.1226 471.597L60.0003 483.719L47.8779 471.597L60.0003 459.474L72.1226 471.597ZM120.61 423.109L108.487 435.232L96.3652 423.109L108.487 410.987L120.61 423.109ZM72.1219 447.353L60.0003 459.474L47.8786 447.353L60.0003 435.231L72.1219 447.353ZM96.3652 423.109L84.2435 435.231L72.1219 423.109L84.2435 410.988L96.3652 423.109ZM47.8786 447.353L23.6347 471.597L11.5131 459.475L35.757 435.231L47.8786 447.353ZM108.487 386.744L84.2435 410.988L72.1219 398.866L96.3659 374.622L108.487 386.744ZM47.8786 423.109L35.757 435.231L23.6354 423.109L35.757 410.988L47.8786 423.109ZM72.1219 398.866L60.0003 410.988L47.8786 398.866L60.0003 386.744L72.1219 398.866ZM23.6354 423.109L11.5131 435.232L-0.609273 423.109L11.5131 410.987L23.6354 423.109ZM47.8786 398.866L35.757 410.988L11.5131 386.744L23.6347 374.622L47.8786 398.866ZM72.1226 374.622L60.0003 386.744L47.8779 374.622L60.0003 362.5L72.1226 374.622Z" fill="#FFF846"/>
</g>

<g filter="url(#filter2_g_7518_18302)">
<path d="M228.487 459.475L216.366 471.597L192.122 447.353L204.244 435.231L228.487 459.475ZM192.123 471.597L180 483.719L167.878 471.597L180 459.474L192.123 471.597ZM240.61 423.109L228.487 435.232L216.365 423.109L228.487 410.987L240.61 423.109ZM192.122 447.353L180 459.474L167.879 447.353L180 435.231L192.122 447.353ZM216.365 423.109L204.244 435.231L192.122 423.109L204.244 410.988L216.365 423.109ZM167.879 447.353L143.635 471.597L131.513 459.475L155.757 435.231L167.879 447.353ZM228.487 386.744L204.244 410.988L192.122 398.866L216.366 374.622L228.487 386.744ZM167.879 423.109L155.757 435.231L143.635 423.109L155.757 410.988L167.879 423.109ZM192.122 398.866L180 410.988L167.879 398.866L180 386.744L192.122 398.866ZM143.635 423.109L131.513 435.232L119.391 423.109L131.513 410.987L143.635 423.109ZM167.879 398.866L155.757 410.988L131.513 386.744L143.635 374.622L167.879 398.866ZM192.123 374.622L180 386.744L167.878 374.622L180 362.5L192.123 374.622Z" fill="#FFF846"/>
</g>

<g filter="url(#filter3_g_7518_18302)">
<path d="M468.487 459.475L456.366 471.597L432.122 447.353L444.244 435.231L468.487 459.475ZM432.123 471.597L420 483.719L407.878 471.597L420 459.474L432.123 471.597ZM480.61 423.109L468.487 435.232L456.365 423.109L468.487 410.987L480.61 423.109ZM432.122 447.353L420 459.474L407.879 447.353L420 435.231L432.122 447.353ZM456.365 423.109L444.244 435.231L432.122 423.109L444.244 410.988L456.365 423.109ZM407.879 447.353L383.635 471.597L371.513 459.475L395.757 435.231L407.879 447.353ZM468.487 386.744L444.244 410.988L432.122 398.866L456.366 374.622L468.487 386.744ZM407.879 423.109L395.757 435.231L383.635 423.109L395.757 410.988L407.879 423.109ZM432.122 398.866L420 410.988L407.879 398.866L420 386.744L432.122 398.866ZM383.635 423.109L371.513 435.232L359.391 423.109L371.513 410.987L383.635 423.109ZM407.879 398.866L395.757 410.988L371.513 386.744L383.635 374.622L407.879 398.866ZM432.123 374.622L420 386.744L407.878 374.622L420 362.5L432.123 374.622Z" fill="#FFF846"/>
</g>

<g filter="url(#filter4_g_7518_18302)">
<path d="M588.487 459.475L576.366 471.597L552.122 447.353L564.244 435.231L588.487 459.475ZM552.123 471.597L540 483.719L527.878 471.597L540 459.474L552.123 471.597ZM600.61 423.109L588.487 435.232L576.365 423.109L588.487 410.987L600.61 423.109ZM552.122 447.353L540 459.474L527.879 447.353L540 435.231L552.122 447.353ZM576.365 423.109L564.244 435.231L552.122 423.109L564.244 410.988L576.365 423.109ZM527.879 447.353L503.635 471.597L491.513 459.475L515.757 435.231L527.879 447.353ZM588.487 386.744L564.244 410.988L552.122 398.866L576.366 374.622L588.487 386.744ZM527.879 423.109L515.757 435.231L503.635 423.109L515.757 410.988L527.879 423.109ZM552.122 398.866L540 410.988L527.879 398.866L540 386.744L552.122 398.866ZM503.635 423.109L491.513 435.232L479.391 423.109L491.513 410.987L503.635 423.109ZM527.879 398.866L515.757 410.988L491.513 386.744L503.635 374.622L527.879 398.866ZM552.123 374.622L540 386.744L527.878 374.622L540 362.5L552.123 374.622Z" fill="#FFF846"/>
</g>

<g filter="url(#filter5_g_7518_18302)">
<path d="M708.487 459.475L696.366 471.597L672.122 447.353L684.244 435.231L708.487 459.475ZM672.123 471.597L660 483.719L647.878 471.597L660 459.474L672.123 471.597ZM720.61 423.109L708.487 435.232L696.365 423.109L708.487 410.987L720.61 423.109ZM672.122 447.353L660 459.474L647.879 447.353L660 435.231L672.122 447.353ZM696.365 423.109L684.244 435.231L672.122 423.109L684.244 410.988L696.365 423.109ZM647.879 447.353L623.635 471.597L611.513 459.475L635.757 435.231L647.879 447.353ZM708.487 386.744L684.244 410.988L672.122 398.866L696.366 374.622L708.487 386.744ZM647.879 423.109L635.757 435.231L623.635 423.109L635.757 410.988L647.879 423.109ZM672.122 398.866L660 410.988L647.879 398.866L660 386.744L672.122 398.866ZM623.635 423.109L611.513 435.232L599.391 423.109L611.513 410.987L623.635 423.109ZM647.879 398.866L635.757 410.988L611.513 386.744L623.635 374.622L647.879 398.866ZM672.123 374.622L660 386.744L647.878 374.622L660 362.5L672.123 374.622Z" fill="#FFF846"/>
</g>

<g filter="url(#filter6_g_7518_18302)">
<path d="M828.487 459.475L816.366 471.597L792.122 447.353L804.244 435.231L828.487 459.475ZM792.123 471.597L780 483.719L767.878 471.597L780 459.474L792.123 471.597ZM840.61 423.109L828.487 435.232L816.365 423.109L828.487 410.987L840.61 423.109ZM792.122 447.353L780 459.474L767.879 447.353L780 435.231L792.122 447.353ZM816.365 423.109L804.244 435.231L792.122 423.109L804.244 410.988L816.365 423.109ZM767.879 447.353L743.635 471.597L731.513 459.475L755.757 435.231L767.879 447.353ZM828.487 386.744L804.244 410.988L792.122 398.866L816.366 374.622L828.487 386.744ZM767.879 423.109L755.757 435.231L743.635 423.109L755.757 410.988L767.879 423.109ZM792.122 398.866L780 410.988L767.879 398.866L780 386.744L792.122 398.866ZM743.635 423.109L731.513 435.232L719.391 423.109L731.513 410.987L743.635 423.109ZM767.879 398.866L755.757 410.988L731.513 386.744L743.635 374.622L767.879 398.866ZM792.123 374.622L780 386.744L767.878 374.622L780 362.5L792.123 374.622Z" fill="#FFF846"/>
</g>

<g filter="url(#filter7_g_7518_18302)">
<path d="M588.487 338.475L576.366 350.597L552.122 326.353L564.244 314.231L588.487 338.475ZM552.123 350.597L540 362.719L527.878 350.597L540 338.474L552.123 350.597ZM600.61 302.109L588.487 314.232L576.365 302.109L588.487 289.987L600.61 302.109ZM552.122 326.353L540 338.474L527.879 326.353L540 314.231L552.122 326.353ZM576.365 302.109L564.244 314.231L552.122 302.109L564.244 289.988L576.365 302.109ZM527.879 326.353L503.635 350.597L491.513 338.475L515.757 314.231L527.879 326.353ZM588.487 265.744L564.244 289.988L552.122 277.866L576.366 253.622L588.487 265.744ZM527.879 302.109L515.757 314.231L503.635 302.109L515.757 289.988L527.879 302.109ZM552.122 277.866L540 289.988L527.879 277.866L540 265.744L552.122 277.866ZM503.635 302.109L491.513 314.232L479.391 302.109L491.513 289.987L503.635 302.109ZM527.879 277.866L515.757 289.988L491.513 265.744L503.635 253.622L527.879 277.866ZM552.123 253.622L540 265.744L527.878 253.622L540 241.5L552.123 253.622Z" fill="#FFF846"/>
</g>

<g filter="url(#filter8_g_7518_18302)">
<path d="M828.487 218.475L816.366 230.597L792.122 206.353L804.244 194.231L828.487 218.475ZM792.123 230.597L780 242.719L767.878 230.597L780 218.474L792.123 230.597ZM840.61 182.109L828.487 194.232L816.365 182.109L828.487 169.987L840.61 182.109ZM792.122 206.353L780 218.474L767.879 206.353L780 194.231L792.122 206.353ZM816.365 182.109L804.244 194.231L792.122 182.109L804.244 169.988L816.365 182.109ZM767.879 206.353L743.635 230.597L731.513 218.475L755.757 194.231L767.879 206.353ZM828.487 145.744L804.244 169.988L792.122 157.866L816.366 133.622L828.487 145.744ZM767.879 182.109L755.757 194.231L743.635 182.109L755.757 169.988L767.879 182.109ZM792.122 157.866L780 169.988L767.879 157.866L780 145.744L792.122 157.866ZM743.635 182.109L731.513 194.232L719.391 182.109L731.513 169.987L743.635 182.109ZM767.879 157.866L755.757 169.988L731.513 145.744L743.635 133.622L767.879 157.866ZM792.123 133.622L780 145.744L767.878 133.622L780 121.5L792.123 133.622Z" fill="#FFF846"/>
</g>

<g filter="url(#filter9_g_7518_18302)">
<path d="M1068.49 459.475L1056.37 471.597L1032.12 447.353L1044.24 435.231L1068.49 459.475ZM1032.12 471.597L1020 483.719L1007.88 471.597L1020 459.474L1032.12 471.597ZM1080.61 423.109L1068.49 435.232L1056.37 423.109L1068.49 410.987L1080.61 423.109ZM1032.12 447.353L1020 459.474L1007.88 447.353L1020 435.231L1032.12 447.353ZM1056.37 423.109L1044.24 435.231L1032.12 423.109L1044.24 410.988L1056.37 423.109ZM1007.88 447.353L983.635 471.597L971.513 459.475L995.757 435.231L1007.88 447.353ZM1068.49 386.744L1044.24 410.988L1032.12 398.866L1056.37 374.622L1068.49 386.744ZM1007.88 423.109L995.757 435.231L983.635 423.109L995.757 410.988L1007.88 423.109ZM1032.12 398.866L1020 410.988L1007.88 398.866L1020 386.744L1032.12 398.866ZM983.635 423.109L971.513 435.232L959.391 423.109L971.513 410.987L983.635 423.109ZM1007.88 398.866L995.757 410.988L971.513 386.744L983.635 374.622L1007.88 398.866ZM1032.12 374.622L1020 386.744L1007.88 374.622L1020 362.5L1032.12 374.622Z" fill="#FFF846"/>
</g>

<g filter="url(#filter10_g_7518_18302)">
<path d="M1309.49 459.475L1297.37 471.597L1273.12 447.353L1285.24 435.231L1309.49 459.475ZM1273.12 471.597L1261 483.719L1248.88 471.597L1261 459.474L1273.12 471.597ZM1321.61 423.109L1309.49 435.232L1297.37 423.109L1309.49 410.987L1321.61 423.109ZM1273.12 447.353L1261 459.474L1248.88 447.353L1261 435.231L1273.12 447.353ZM1297.37 423.109L1285.24 435.231L1273.12 423.109L1285.24 410.988L1297.37 423.109ZM1248.88 447.353L1224.63 471.597L1212.51 459.475L1236.76 435.231L1248.88 447.353ZM1309.49 386.744L1285.24 410.988L1273.12 398.866L1297.37 374.622L1309.49 386.744ZM1248.88 423.109L1236.76 435.231L1224.64 423.109L1236.76 410.988L1248.88 423.109ZM1273.12 398.866L1261 410.988L1248.88 398.866L1261 386.744L1273.12 398.866ZM1224.64 423.109L1212.51 435.232L1200.39 423.109L1212.51 410.987L1224.64 423.109ZM1248.88 398.866L1236.76 410.988L1212.51 386.744L1224.63 374.622L1248.88 398.866ZM1273.12 374.622L1261 386.744L1248.88 374.622L1261 362.5L1273.12 374.622Z" fill="#FFF846"/>
</g>

<g filter="url(#filter11_g_7518_18302)">
<path d="M1429.49 459.475L1417.37 471.597L1393.12 447.353L1405.24 435.231L1429.49 459.475ZM1393.12 471.597L1381 483.719L1368.88 471.597L1381 459.474L1393.12 471.597ZM1441.61 423.109L1429.49 435.232L1417.37 423.109L1429.49 410.987L1441.61 423.109ZM1393.12 447.353L1381 459.474L1368.88 447.353L1381 435.231L1393.12 447.353ZM1417.37 423.109L1405.24 435.231L1393.12 423.109L1405.24 410.988L1417.37 423.109ZM1368.88 447.353L1344.63 471.597L1332.51 459.475L1356.76 435.231L1368.88 447.353ZM1429.49 386.744L1405.24 410.988L1393.12 398.866L1417.37 374.622L1429.49 386.744ZM1368.88 423.109L1356.76 435.231L1344.64 423.109L1356.76 410.988L1368.88 423.109ZM1393.12 398.866L1381 410.988L1368.88 398.866L1381 386.744L1393.12 398.866ZM1344.64 423.109L1332.51 435.232L1320.39 423.109L1332.51 410.987L1344.64 423.109ZM1368.88 398.866L1356.76 410.988L1332.51 386.744L1344.63 374.622L1368.88 398.866ZM1393.12 374.622L1381 386.744L1368.88 374.622L1381 362.5L1393.12 374.622Z" fill="#FFF846"/>
</g>

<g filter="url(#filter12_g_7518_18302)">
<path d="M1429.49 338.475L1417.37 350.597L1393.12 326.353L1405.24 314.231L1429.49 338.475ZM1393.12 350.597L1381 362.719L1368.88 350.597L1381 338.474L1393.12 350.597ZM1441.61 302.109L1429.49 314.232L1417.37 302.109L1429.49 289.987L1441.61 302.109ZM1393.12 326.353L1381 338.474L1368.88 326.353L1381 314.231L1393.12 326.353ZM1417.37 302.109L1405.24 314.231L1393.12 302.109L1405.24 289.988L1417.37 302.109ZM1368.88 326.353L1344.63 350.597L1332.51 338.475L1356.76 314.231L1368.88 326.353ZM1429.49 265.744L1405.24 289.988L1393.12 277.866L1417.37 253.622L1429.49 265.744ZM1368.88 302.109L1356.76 314.231L1344.64 302.109L1356.76 289.988L1368.88 302.109ZM1393.12 277.866L1381 289.988L1368.88 277.866L1381 265.744L1393.12 277.866ZM1344.64 302.109L1332.51 314.232L1320.39 302.109L1332.51 289.987L1344.64 302.109ZM1368.88 277.866L1356.76 289.988L1332.51 265.744L1344.63 253.622L1368.88 277.866ZM1393.12 253.622L1381 265.744L1368.88 253.622L1381 241.5L1393.12 253.622Z" fill="#FFF846"/>
</g>

<g filter="url(#filter13_g_7518_18302)">
<path d="M1549.49 218.475L1537.37 230.597L1513.12 206.353L1525.24 194.231L1549.49 218.475ZM1513.12 230.597L1501 242.719L1488.88 230.597L1501 218.474L1513.12 230.597ZM1561.61 182.109L1549.49 194.232L1537.37 182.109L1549.49 169.987L1561.61 182.109ZM1513.12 206.353L1501 218.474L1488.88 206.353L1501 194.231L1513.12 206.353ZM1537.37 182.109L1525.24 194.231L1513.12 182.109L1525.24 169.988L1537.37 182.109ZM1488.88 206.353L1464.63 230.597L1452.51 218.475L1476.76 194.231L1488.88 206.353ZM1549.49 145.744L1525.24 169.988L1513.12 157.866L1537.37 133.622L1549.49 145.744ZM1488.88 182.109L1476.76 194.231L1464.64 182.109L1476.76 169.988L1488.88 182.109ZM1513.12 157.866L1501 169.988L1488.88 157.866L1501 145.744L1513.12 157.866ZM1464.64 182.109L1452.51 194.232L1440.39 182.109L1452.51 169.987L1464.64 182.109ZM1488.88 157.866L1476.76 169.988L1452.51 145.744L1464.63 133.622L1488.88 157.866ZM1513.12 133.622L1501 145.744L1488.88 133.622L1501 121.5L1513.12 133.622Z" fill="#FFF846"/>
</g>

<g filter="url(#filter14_g_7518_18302)">
<path d="M1549.49 338.475L1537.37 350.597L1513.12 326.353L1525.24 314.231L1549.49 338.475ZM1513.12 350.597L1501 362.719L1488.88 350.597L1501 338.474L1513.12 350.597ZM1561.61 302.109L1549.49 314.232L1537.37 302.109L1549.49 289.987L1561.61 302.109ZM1513.12 326.353L1501 338.474L1488.88 326.353L1501 314.231L1513.12 326.353ZM1537.37 302.109L1525.24 314.231L1513.12 302.109L1525.24 289.988L1537.37 302.109ZM1488.88 326.353L1464.63 350.597L1452.51 338.475L1476.76 314.231L1488.88 326.353ZM1549.49 265.744L1525.24 289.988L1513.12 277.866L1537.37 253.622L1549.49 265.744ZM1488.88 302.109L1476.76 314.231L1464.64 302.109L1476.76 289.988L1488.88 302.109ZM1513.12 277.866L1501 289.988L1488.88 277.866L1501 265.744L1513.12 277.866ZM1464.64 302.109L1452.51 314.232L1440.39 302.109L1452.51 289.987L1464.64 302.109ZM1488.88 277.866L1476.76 289.988L1452.51 265.744L1464.63 253.622L1488.88 277.866ZM1513.12 253.622L1501 265.744L1488.88 253.622L1501 241.5L1513.12 253.622Z" fill="#FFF846"/>
</g>

<g filter="url(#filter15_g_7518_18302)">
<path d="M1669.49 218.475L1657.37 230.597L1633.12 206.353L1645.24 194.231L1669.49 218.475ZM1633.12 230.597L1621 242.719L1608.88 230.597L1621 218.474L1633.12 230.597ZM1681.61 182.109L1669.49 194.232L1657.37 182.109L1669.49 169.987L1681.61 182.109ZM1633.12 206.353L1621 218.474L1608.88 206.353L1621 194.231L1633.12 206.353ZM1657.37 182.109L1645.24 194.231L1633.12 182.109L1645.24 169.988L1657.37 182.109ZM1608.88 206.353L1584.63 230.597L1572.51 218.475L1596.76 194.231L1608.88 206.353ZM1669.49 145.744L1645.24 169.988L1633.12 157.866L1657.37 133.622L1669.49 145.744ZM1608.88 182.109L1596.76 194.231L1584.64 182.109L1596.76 169.988L1608.88 182.109ZM1633.12 157.866L1621 169.988L1608.88 157.866L1621 145.744L1633.12 157.866ZM1584.64 182.109L1572.51 194.232L1560.39 182.109L1572.51 169.987L1584.64 182.109ZM1608.88 157.866L1596.76 169.988L1572.51 145.744L1584.63 133.622L1608.88 157.866ZM1633.12 133.622L1621 145.744L1608.88 133.622L1621 121.5L1633.12 133.622Z" fill="#FFF846"/>
</g>

<g filter="url(#filter16_g_7518_18302)">
<path d="M1549.49 98.475L1537.37 110.597L1513.12 86.3526L1525.24 74.231L1549.49 98.475ZM1513.12 110.597L1501 122.719L1488.88 110.597L1501 98.4743L1513.12 110.597ZM1561.61 62.1094L1549.49 74.2317L1537.37 62.1094L1549.49 49.9871L1561.61 62.1094ZM1513.12 86.3526L1501 98.4743L1488.88 86.3526L1501 74.231L1513.12 86.3526ZM1537.37 62.1094L1525.24 74.231L1513.12 62.1094L1525.24 49.9877L1537.37 62.1094ZM1488.88 86.3526L1464.63 110.597L1452.51 98.475L1476.76 74.231L1488.88 86.3526ZM1549.49 25.7438L1525.24 49.9877L1513.12 37.8661L1537.37 13.6222L1549.49 25.7438ZM1488.88 62.1094L1476.76 74.231L1464.64 62.1094L1476.76 49.9877L1488.88 62.1094ZM1513.12 37.8661L1501 49.9877L1488.88 37.8661L1501 25.7445L1513.12 37.8661ZM1464.64 62.1094L1452.51 74.2317L1440.39 62.1094L1452.51 49.9871L1464.64 62.1094ZM1488.88 37.8661L1476.76 49.9877L1452.51 25.7438L1464.63 13.6222L1488.88 37.8661ZM1513.12 13.6222L1501 25.7445L1488.88 13.6222L1501 1.49983L1513.12 13.6222Z" fill="#FFF846"/>
</g>

<g filter="url(#filter17_g_7518_18302)">
<path d="M1550.49 459.475L1538.37 471.597L1514.12 447.353L1526.24 435.231L1550.49 459.475ZM1514.12 471.597L1502 483.719L1489.88 471.597L1502 459.474L1514.12 471.597ZM1562.61 423.109L1550.49 435.232L1538.37 423.109L1550.49 410.987L1562.61 423.109ZM1514.12 447.353L1502 459.474L1489.88 447.353L1502 435.231L1514.12 447.353ZM1538.37 423.109L1526.24 435.231L1514.12 423.109L1526.24 410.988L1538.37 423.109ZM1489.88 447.353L1465.63 471.597L1453.51 459.475L1477.76 435.231L1489.88 447.353ZM1550.49 386.744L1526.24 410.988L1514.12 398.866L1538.37 374.622L1550.49 386.744ZM1489.88 423.109L1477.76 435.231L1465.64 423.109L1477.76 410.988L1489.88 423.109ZM1514.12 398.866L1502 410.988L1489.88 398.866L1502 386.744L1514.12 398.866ZM1465.64 423.109L1453.51 435.232L1441.39 423.109L1453.51 410.987L1465.64 423.109ZM1489.88 398.866L1477.76 410.988L1453.51 386.744L1465.63 374.622L1489.88 398.866ZM1514.12 374.622L1502 386.744L1489.88 374.622L1502 362.5L1514.12 374.622Z" fill="#FFF846"/>
</g>

<g filter="url(#filter18_g_7518_18302)">
<path d="M1670.49 459.475L1658.37 471.597L1634.12 447.353L1646.24 435.231L1670.49 459.475ZM1634.12 471.597L1622 483.719L1609.88 471.597L1622 459.474L1634.12 471.597ZM1682.61 423.109L1670.49 435.232L1658.37 423.109L1670.49 410.987L1682.61 423.109ZM1634.12 447.353L1622 459.474L1609.88 447.353L1622 435.231L1634.12 447.353ZM1658.37 423.109L1646.24 435.231L1634.12 423.109L1646.24 410.988L1658.37 423.109ZM1609.88 447.353L1585.63 471.597L1573.51 459.475L1597.76 435.231L1609.88 447.353ZM1670.49 386.744L1646.24 410.988L1634.12 398.866L1658.37 374.622L1670.49 386.744ZM1609.88 423.109L1597.76 435.231L1585.64 423.109L1597.76 410.988L1609.88 423.109ZM1634.12 398.866L1622 410.988L1609.88 398.866L1622 386.744L1634.12 398.866ZM1585.64 423.109L1573.51 435.232L1561.39 423.109L1573.51 410.987L1585.64 423.109ZM1609.88 398.866L1597.76 410.988L1573.51 386.744L1585.63 374.622L1609.88 398.866ZM1634.12 374.622L1622 386.744L1609.88 374.622L1622 362.5L1634.12 374.622Z" fill="#FFF846"/>
</g>

<g filter="url(#filter19_g_7518_18302)">
<path d="M108.487 339.475L96.3659 351.597L72.1219 327.353L84.2435 315.231L108.487 339.475ZM72.1226 351.597L60.0003 363.719L47.8779 351.597L60.0003 339.474L72.1226 351.597ZM120.61 303.109L108.487 315.232L96.3652 303.109L108.487 290.987L120.61 303.109ZM72.1219 327.353L60.0003 339.474L47.8786 327.353L60.0003 315.231L72.1219 327.353ZM96.3652 303.109L84.2435 315.231L72.1219 303.109L84.2435 290.988L96.3652 303.109ZM47.8786 327.353L23.6347 351.597L11.5131 339.475L35.757 315.231L47.8786 327.353ZM108.487 266.744L84.2435 290.988L72.1219 278.866L96.3659 254.622L108.487 266.744ZM47.8786 303.109L35.757 315.231L23.6354 303.109L35.757 290.988L47.8786 303.109ZM72.1219 278.866L60.0003 290.988L47.8786 278.866L60.0003 266.744L72.1219 278.866ZM23.6354 303.109L11.5131 315.232L-0.609273 303.109L11.5131 290.987L23.6354 303.109ZM47.8786 278.866L35.757 290.988L11.5131 266.744L23.6347 254.622L47.8786 278.866ZM72.1226 254.622L60.0003 266.744L47.8779 254.622L60.0003 242.5L72.1226 254.622Z" fill="#FFF846"/>
</g>

<g filter="url(#filter20_g_7518_18302)">
<path d="M1790.49 459.475L1778.37 471.597L1754.12 447.353L1766.24 435.231L1790.49 459.475ZM1754.12 471.597L1742 483.719L1729.88 471.597L1742 459.474L1754.12 471.597ZM1802.61 423.109L1790.49 435.232L1778.37 423.109L1790.49 410.987L1802.61 423.109ZM1754.12 447.353L1742 459.474L1729.88 447.353L1742 435.231L1754.12 447.353ZM1778.37 423.109L1766.24 435.231L1754.12 423.109L1766.24 410.988L1778.37 423.109ZM1729.88 447.353L1705.63 471.597L1693.51 459.475L1717.76 435.231L1729.88 447.353ZM1790.49 386.744L1766.24 410.988L1754.12 398.866L1778.37 374.622L1790.49 386.744ZM1729.88 423.109L1717.76 435.231L1705.64 423.109L1717.76 410.988L1729.88 423.109ZM1754.12 398.866L1742 410.988L1729.88 398.866L1742 386.744L1754.12 398.866ZM1705.64 423.109L1693.51 435.232L1681.39 423.109L1693.51 410.987L1705.64 423.109ZM1729.88 398.866L1717.76 410.988L1693.51 386.744L1705.63 374.622L1729.88 398.866ZM1754.12 374.622L1742 386.744L1729.88 374.622L1742 362.5L1754.12 374.622Z" fill="#FFF846"/>
</g>
<defs>
<filter id="filter0_g_7518_18302" x="-122.109" y="361" width="124.219" height="124.219" filterUnits="userSpaceOnUse" color-interpolation-filters="sRGB">
<feFlood flood-opacity="0" result="BackgroundImageFix"/>
<feBlend mode="normal" in="SourceGraphic" in2="BackgroundImageFix" result="shape"/>
<feTurbulence type="fractalNoise" baseFrequency="2 2" numOctaves="3" seed="7951" />
<feDisplacementMap in="shape" scale="3" xChannelSelector="R" yChannelSelector="G" result="displacedImage" width="100%" height="100%" />
<feMerge result="effect1_texture_7518_18302">
<feMergeNode in="displacedImage"/>
</feMerge>
</filter>
<filter id="filter1_g_7518_18302" x="-2.10938" y="361" width="124.219" height="124.219" filterUnits="userSpaceOnUse" color-interpolation-filters="sRGB">
<feFlood flood-opacity="0" result="BackgroundImageFix"/>
<feBlend mode="normal" in="SourceGraphic" in2="BackgroundImageFix" result="shape"/>
<feTurbulence type="fractalNoise" baseFrequency="2 2" numOctaves="3" seed="7951" />
<feDisplacementMap in="shape" scale="3" xChannelSelector="R" yChannelSelector="G" result="displacedImage" width="100%" height="100%" />
<feMerge result="effect1_texture_7518_18302">
<feMergeNode in="displacedImage"/>
</feMerge>
</filter>
<filter id="filter2_g_7518_18302" x="117.891" y="361" width="124.219" height="124.219" filterUnits="userSpaceOnUse" color-interpolation-filters="sRGB">
<feFlood flood-opacity="0" result="BackgroundImageFix"/>
<feBlend mode="normal" in="SourceGraphic" in2="BackgroundImageFix" result="shape"/>
<feTurbulence type="fractalNoise" baseFrequency="2 2" numOctaves="3" seed="7951" />
<feDisplacementMap in="shape" scale="3" xChannelSelector="R" yChannelSelector="G" result="displacedImage" width="100%" height="100%" />
<feMerge result="effect1_texture_7518_18302">
<feMergeNode in="displacedImage"/>
</feMerge>
</filter>
<filter id="filter3_g_7518_18302" x="357.891" y="361" width="124.219" height="124.219" filterUnits="userSpaceOnUse" color-interpolation-filters="sRGB">
<feFlood flood-opacity="0" result="BackgroundImageFix"/>
<feBlend mode="normal" in="SourceGraphic" in2="BackgroundImageFix" result="shape"/>
<feTurbulence type="fractalNoise" baseFrequency="2 2" numOctaves="3" seed="7951" />
<feDisplacementMap in="shape" scale="3" xChannelSelector="R" yChannelSelector="G" result="displacedImage" width="100%" height="100%" />
<feMerge result="effect1_texture_7518_18302">
<feMergeNode in="displacedImage"/>
</feMerge>
</filter>
<filter id="filter4_g_7518_18302" x="477.891" y="361" width="124.219" height="124.219" filterUnits="userSpaceOnUse" color-interpolation-filters="sRGB">
<feFlood flood-opacity="0" result="BackgroundImageFix"/>
<feBlend mode="normal" in="SourceGraphic" in2="BackgroundImageFix" result="shape"/>
<feTurbulence type="fractalNoise" baseFrequency="2 2" numOctaves="3" seed="7951" />
<feDisplacementMap in="shape" scale="3" xChannelSelector="R" yChannelSelector="G" result="displacedImage" width="100%" height="100%" />
<feMerge result="effect1_texture_7518_18302">
<feMergeNode in="displacedImage"/>
</feMerge>
</filter>
<filter id="filter5_g_7518_18302" x="597.891" y="361" width="124.219" height="124.219" filterUnits="userSpaceOnUse" color-interpolation-filters="sRGB">
<feFlood flood-opacity="0" result="BackgroundImageFix"/>
<feBlend mode="normal" in="SourceGraphic" in2="BackgroundImageFix" result="shape"/>
<feTurbulence type="fractalNoise" baseFrequency="2 2" numOctaves="3" seed="7951" />
<feDisplacementMap in="shape" scale="3" xChannelSelector="R" yChannelSelector="G" result="displacedImage" width="100%" height="100%" />
<feMerge result="effect1_texture_7518_18302">
<feMergeNode in="displacedImage"/>
</feMerge>
</filter>
<filter id="filter6_g_7518_18302" x="717.891" y="361" width="124.219" height="124.219" filterUnits="userSpaceOnUse" color-interpolation-filters="sRGB">
<feFlood flood-opacity="0" result="BackgroundImageFix"/>
<feBlend mode="normal" in="SourceGraphic" in2="BackgroundImageFix" result="shape"/>
<feTurbulence type="fractalNoise" baseFrequency="2 2" numOctaves="3" seed="7951" />
<feDisplacementMap in="shape" scale="3" xChannelSelector="R" yChannelSelector="G" result="displacedImage" width="100%" height="100%" />
<feMerge result="effect1_texture_7518_18302">
<feMergeNode in="displacedImage"/>
</feMerge>
</filter>
<filter id="filter7_g_7518_18302" x="477.891" y="240" width="124.219" height="124.219" filterUnits="userSpaceOnUse" color-interpolation-filters="sRGB">
<feFlood flood-opacity="0" result="BackgroundImageFix"/>
<feBlend mode="normal" in="SourceGraphic" in2="BackgroundImageFix" result="shape"/>
<feTurbulence type="fractalNoise" baseFrequency="2 2" numOctaves="3" seed="7951" />
<feDisplacementMap in="shape" scale="3" xChannelSelector="R" yChannelSelector="G" result="displacedImage" width="100%" height="100%" />
<feMerge result="effect1_texture_7518_18302">
<feMergeNode in="displacedImage"/>
</feMerge>
</filter>
<filter id="filter8_g_7518_18302" x="717.891" y="120" width="124.219" height="124.219" filterUnits="userSpaceOnUse" color-interpolation-filters="sRGB">
<feFlood flood-opacity="0" result="BackgroundImageFix"/>
<feBlend mode="normal" in="SourceGraphic" in2="BackgroundImageFix" result="shape"/>
<feTurbulence type="fractalNoise" baseFrequency="2 2" numOctaves="3" seed="7951" />
<feDisplacementMap in="shape" scale="3" xChannelSelector="R" yChannelSelector="G" result="displacedImage" width="100%" height="100%" />
<feMerge result="effect1_texture_7518_18302">
<feMergeNode in="displacedImage"/>
</feMerge>
</filter>
<filter id="filter9_g_7518_18302" x="957.891" y="361" width="124.219" height="124.219" filterUnits="userSpaceOnUse" color-interpolation-filters="sRGB">
<feFlood flood-opacity="0" result="BackgroundImageFix"/>
<feBlend mode="normal" in="SourceGraphic" in2="BackgroundImageFix" result="shape"/>
<feTurbulence type="fractalNoise" baseFrequency="2 2" numOctaves="3" seed="7951" />
<feDisplacementMap in="shape" scale="3" xChannelSelector="R" yChannelSelector="G" result="displacedImage" width="100%" height="100%" />
<feMerge result="effect1_texture_7518_18302">
<feMergeNode in="displacedImage"/>
</feMerge>
</filter>
<filter id="filter10_g_7518_18302" x="1198.89" y="361" width="124.219" height="124.219" filterUnits="userSpaceOnUse" color-interpolation-filters="sRGB">
<feFlood flood-opacity="0" result="BackgroundImageFix"/>
<feBlend mode="normal" in="SourceGraphic" in2="BackgroundImageFix" result="shape"/>
<feTurbulence type="fractalNoise" baseFrequency="2 2" numOctaves="3" seed="7951" />
<feDisplacementMap in="shape" scale="3" xChannelSelector="R" yChannelSelector="G" result="displacedImage" width="100%" height="100%" />
<feMerge result="effect1_texture_7518_18302">
<feMergeNode in="displacedImage"/>
</feMerge>
</filter>
<filter id="filter11_g_7518_18302" x="1318.89" y="361" width="124.219" height="124.219" filterUnits="userSpaceOnUse" color-interpolation-filters="sRGB">
<feFlood flood-opacity="0" result="BackgroundImageFix"/>
<feBlend mode="normal" in="SourceGraphic" in2="BackgroundImageFix" result="shape"/>
<feTurbulence type="fractalNoise" baseFrequency="2 2" numOctaves="3" seed="7951" />
<feDisplacementMap in="shape" scale="3" xChannelSelector="R" yChannelSelector="G" result="displacedImage" width="100%" height="100%" />
<feMerge result="effect1_texture_7518_18302">
<feMergeNode in="displacedImage"/>
</feMerge>
</filter>
<filter id="filter12_g_7518_18302" x="1318.89" y="240" width="124.219" height="124.219" filterUnits="userSpaceOnUse" color-interpolation-filters="sRGB">
<feFlood flood-opacity="0" result="BackgroundImageFix"/>
<feBlend mode="normal" in="SourceGraphic" in2="BackgroundImageFix" result="shape"/>
<feTurbulence type="fractalNoise" baseFrequency="2 2" numOctaves="3" seed="7951" />
<feDisplacementMap in="shape" scale="3" xChannelSelector="R" yChannelSelector="G" result="displacedImage" width="100%" height="100%" />
<feMerge result="effect1_texture_7518_18302">
<feMergeNode in="displacedImage"/>
</feMerge>
</filter>
<filter id="filter13_g_7518_18302" x="1438.89" y="120" width="124.219" height="124.219" filterUnits="userSpaceOnUse" color-interpolation-filters="sRGB">
<feFlood flood-opacity="0" result="BackgroundImageFix"/>
<feBlend mode="normal" in="SourceGraphic" in2="BackgroundImageFix" result="shape"/>
<feTurbulence type="fractalNoise" baseFrequency="2 2" numOctaves="3" seed="7951" />
<feDisplacementMap in="shape" scale="3" xChannelSelector="R" yChannelSelector="G" result="displacedImage" width="100%" height="100%" />
<feMerge result="effect1_texture_7518_18302">
<feMergeNode in="displacedImage"/>
</feMerge>
</filter>
<filter id="filter14_g_7518_18302" x="1438.89" y="240" width="124.219" height="124.219" filterUnits="userSpaceOnUse" color-interpolation-filters="sRGB">
<feFlood flood-opacity="0" result="BackgroundImageFix"/>
<feBlend mode="normal" in="SourceGraphic" in2="BackgroundImageFix" result="shape"/>
<feTurbulence type="fractalNoise" baseFrequency="2 2" numOctaves="3" seed="7951" />
<feDisplacementMap in="shape" scale="3" xChannelSelector="R" yChannelSelector="G" result="displacedImage" width="100%" height="100%" />
<feMerge result="effect1_texture_7518_18302">
<feMergeNode in="displacedImage"/>
</feMerge>
</filter>
<filter id="filter15_g_7518_18302" x="1558.89" y="120" width="124.219" height="124.219" filterUnits="userSpaceOnUse" color-interpolation-filters="sRGB">
<feFlood flood-opacity="0" result="BackgroundImageFix"/>
<feBlend mode="normal" in="SourceGraphic" in2="BackgroundImageFix" result="shape"/>
<feTurbulence type="fractalNoise" baseFrequency="2 2" numOctaves="3" seed="7951" />
<feDisplacementMap in="shape" scale="3" xChannelSelector="R" yChannelSelector="G" result="displacedImage" width="100%" height="100%" />
<feMerge result="effect1_texture_7518_18302">
<feMergeNode in="displacedImage"/>
</feMerge>
</filter>
<filter id="filter16_g_7518_18302" x="1438.89" y="0" width="124.219" height="124.219" filterUnits="userSpaceOnUse" color-interpolation-filters="sRGB">
<feFlood flood-opacity="0" result="BackgroundImageFix"/>
<feBlend mode="normal" in="SourceGraphic" in2="BackgroundImageFix" result="shape"/>
<feTurbulence type="fractalNoise" baseFrequency="2 2" numOctaves="3" seed="7951" />
<feDisplacementMap in="shape" scale="3" xChannelSelector="R" yChannelSelector="G" result="displacedImage" width="100%" height="100%" />
<feMerge result="effect1_texture_7518_18302">
<feMergeNode in="displacedImage"/>
</feMerge>
</filter>
<filter id="filter17_g_7518_18302" x="1439.89" y="361" width="124.219" height="124.219" filterUnits="userSpaceOnUse" color-interpolation-filters="sRGB">
<feFlood flood-opacity="0" result="BackgroundImageFix"/>
<feBlend mode="normal" in="SourceGraphic" in2="BackgroundImageFix" result="shape"/>
<feTurbulence type="fractalNoise" baseFrequency="2 2" numOctaves="3" seed="7951" />
<feDisplacementMap in="shape" scale="3" xChannelSelector="R" yChannelSelector="G" result="displacedImage" width="100%" height="100%" />
<feMerge result="effect1_texture_7518_18302">
<feMergeNode in="displacedImage"/>
</feMerge>
</filter>
<filter id="filter18_g_7518_18302" x="1559.89" y="361" width="124.219" height="124.219" filterUnits="userSpaceOnUse" color-interpolation-filters="sRGB">
<feFlood flood-opacity="0" result="BackgroundImageFix"/>
<feBlend mode="normal" in="SourceGraphic" in2="BackgroundImageFix" result="shape"/>
<feTurbulence type="fractalNoise" baseFrequency="2 2" numOctaves="3" seed="7951" />
<feDisplacementMap in="shape" scale="3" xChannelSelector="R" yChannelSelector="G" result="displacedImage" width="100%" height="100%" />
<feMerge result="effect1_texture_7518_18302">
<feMergeNode in="displacedImage"/>
</feMerge>
</filter>
<filter id="filter19_g_7518_18302" x="-2.10938" y="241" width="124.219" height="124.219" filterUnits="userSpaceOnUse" color-interpolation-filters="sRGB">
<feFlood flood-opacity="0" result="BackgroundImageFix"/>
<feBlend mode="normal" in="SourceGraphic" in2="BackgroundImageFix" result="shape"/>
<feTurbulence type="fractalNoise" baseFrequency="2 2" numOctaves="3" seed="7951" />
<feDisplacementMap in="shape" scale="3" xChannelSelector="R" yChannelSelector="G" result="displacedImage" width="100%" height="100%" />
<feMerge result="effect1_texture_7518_18302">
<feMergeNode in="displacedImage"/>
</feMerge>
</filter>
<filter id="filter20_g_7518_18302" x="1679.89" y="361" width="124.219" height="124.219" filterUnits="userSpaceOnUse" color-interpolation-filters="sRGB">
<feFlood flood-opacity="0" result="BackgroundImageFix"/>
<feBlend mode="normal" in="SourceGraphic" in2="BackgroundImageFix" result="shape"/>
<feTurbulence type="fractalNoise" baseFrequency="2 2" numOctaves="3" seed="7951" />
<feDisplacementMap in="shape" scale="3" xChannelSelector="R" yChannelSelector="G" result="displacedImage" width="100%" height="100%" />
<feMerge result="effect1_texture_7518_18302">
<feMergeNode in="displacedImage"/>
</feMerge>
</filter>
</defs>
</svg>
