<svg width="393" height="484" viewBox="0 0 393 484" fill="none" xmlns="http://www.w3.org/2000/svg">

<g filter="url(#filter0_g_7524_18311)">
<path d="M-11.5125 459.475L-23.6341 471.597L-47.8781 447.353L-35.7565 435.231L-11.5125 459.475ZM-47.8774 471.597L-59.9997 483.719L-72.1221 471.597L-59.9997 459.474L-47.8774 471.597ZM0.609819 423.109L-11.5125 435.232L-23.6348 423.109L-11.5125 410.987L0.609819 423.109ZM-47.8781 447.353L-59.9997 459.474L-72.1214 447.353L-59.9997 435.231L-47.8781 447.353ZM-23.6348 423.109L-35.7565 435.231L-47.8781 423.109L-35.7565 410.988L-23.6348 423.109ZM-72.1214 447.353L-96.3653 471.597L-108.487 459.475L-84.243 435.231L-72.1214 447.353ZM-11.5125 386.744L-35.7565 410.988L-47.8781 398.866L-23.6341 374.622L-11.5125 386.744ZM-72.1214 423.109L-84.243 435.231L-96.3646 423.109L-84.243 410.988L-72.1214 423.109ZM-47.8781 398.866L-59.9997 410.988L-72.1214 398.866L-59.9997 386.744L-47.8781 398.866ZM-96.3646 423.109L-108.487 435.232L-120.609 423.109L-108.487 410.987L-96.3646 423.109ZM-72.1214 398.866L-84.243 410.988L-108.487 386.744L-96.3653 374.622L-72.1214 398.866ZM-47.8774 374.622L-59.9997 386.744L-72.1221 374.622L-59.9997 362.5L-47.8774 374.622Z" fill="#FFF846"/>
</g>

<g filter="url(#filter1_g_7524_18311)">
<path d="M108.487 459.475L96.3659 471.597L72.1219 447.353L84.2435 435.231L108.487 459.475ZM72.1226 471.597L60.0003 483.719L47.8779 471.597L60.0003 459.474L72.1226 471.597ZM120.61 423.109L108.487 435.232L96.3652 423.109L108.487 410.987L120.61 423.109ZM72.1219 447.353L60.0003 459.474L47.8786 447.353L60.0003 435.231L72.1219 447.353ZM96.3652 423.109L84.2435 435.231L72.1219 423.109L84.2435 410.988L96.3652 423.109ZM47.8786 447.353L23.6347 471.597L11.5131 459.475L35.757 435.231L47.8786 447.353ZM108.487 386.744L84.2435 410.988L72.1219 398.866L96.3659 374.622L108.487 386.744ZM47.8786 423.109L35.757 435.231L23.6354 423.109L35.757 410.988L47.8786 423.109ZM72.1219 398.866L60.0003 410.988L47.8786 398.866L60.0003 386.744L72.1219 398.866ZM23.6354 423.109L11.5131 435.232L-0.609273 423.109L11.5131 410.987L23.6354 423.109ZM47.8786 398.866L35.757 410.988L11.5131 386.744L23.6347 374.622L47.8786 398.866ZM72.1226 374.622L60.0003 386.744L47.8779 374.622L60.0003 362.5L72.1226 374.622Z" fill="#FFF846"/>
</g>

<g filter="url(#filter2_g_7524_18311)">
<path d="M228.487 459.475L216.366 471.597L192.122 447.353L204.244 435.231L228.487 459.475ZM192.123 471.597L180 483.719L167.878 471.597L180 459.474L192.123 471.597ZM240.61 423.109L228.487 435.232L216.365 423.109L228.487 410.987L240.61 423.109ZM192.122 447.353L180 459.474L167.879 447.353L180 435.231L192.122 447.353ZM216.365 423.109L204.244 435.231L192.122 423.109L204.244 410.988L216.365 423.109ZM167.879 447.353L143.635 471.597L131.513 459.475L155.757 435.231L167.879 447.353ZM228.487 386.744L204.244 410.988L192.122 398.866L216.366 374.622L228.487 386.744ZM167.879 423.109L155.757 435.231L143.635 423.109L155.757 410.988L167.879 423.109ZM192.122 398.866L180 410.988L167.879 398.866L180 386.744L192.122 398.866ZM143.635 423.109L131.513 435.232L119.391 423.109L131.513 410.987L143.635 423.109ZM167.879 398.866L155.757 410.988L131.513 386.744L143.635 374.622L167.879 398.866ZM192.123 374.622L180 386.744L167.878 374.622L180 362.5L192.123 374.622Z" fill="#FFF846"/>
</g>

<g filter="url(#filter3_g_7524_18311)">
<path d="M468.487 459.475L456.366 471.597L432.122 447.353L444.244 435.231L468.487 459.475ZM432.123 471.597L420 483.719L407.878 471.597L420 459.474L432.123 471.597ZM480.61 423.109L468.487 435.232L456.365 423.109L468.487 410.987L480.61 423.109ZM432.122 447.353L420 459.474L407.879 447.353L420 435.231L432.122 447.353ZM456.365 423.109L444.244 435.231L432.122 423.109L444.244 410.988L456.365 423.109ZM407.879 447.353L383.635 471.597L371.513 459.475L395.757 435.231L407.879 447.353ZM468.487 386.744L444.244 410.988L432.122 398.866L456.366 374.622L468.487 386.744ZM407.879 423.109L395.757 435.231L383.635 423.109L395.757 410.988L407.879 423.109ZM432.122 398.866L420 410.988L407.879 398.866L420 386.744L432.122 398.866ZM383.635 423.109L371.513 435.232L359.391 423.109L371.513 410.987L383.635 423.109ZM407.879 398.866L395.757 410.988L371.513 386.744L383.635 374.622L407.879 398.866ZM432.123 374.622L420 386.744L407.878 374.622L420 362.5L432.123 374.622Z" fill="#FFF846"/>
</g>

<g filter="url(#filter4_g_7524_18311)">
<path d="M108.487 339.475L96.3659 351.597L72.1219 327.353L84.2435 315.231L108.487 339.475ZM72.1226 351.597L60.0003 363.719L47.8779 351.597L60.0003 339.474L72.1226 351.597ZM120.61 303.109L108.487 315.232L96.3652 303.109L108.487 290.987L120.61 303.109ZM72.1219 327.353L60.0003 339.474L47.8786 327.353L60.0003 315.231L72.1219 327.353ZM96.3652 303.109L84.2435 315.231L72.1219 303.109L84.2435 290.988L96.3652 303.109ZM47.8786 327.353L23.6347 351.597L11.5131 339.475L35.757 315.231L47.8786 327.353ZM108.487 266.744L84.2435 290.988L72.1219 278.866L96.3659 254.622L108.487 266.744ZM47.8786 303.109L35.757 315.231L23.6354 303.109L35.757 290.988L47.8786 303.109ZM72.1219 278.866L60.0003 290.988L47.8786 278.866L60.0003 266.744L72.1219 278.866ZM23.6354 303.109L11.5131 315.232L-0.609273 303.109L11.5131 290.987L23.6354 303.109ZM47.8786 278.866L35.757 290.988L11.5131 266.744L23.6347 254.622L47.8786 278.866ZM72.1226 254.622L60.0003 266.744L47.8779 254.622L60.0003 242.5L72.1226 254.622Z" fill="#FFF846"/>
</g>
<defs>
<filter id="filter0_g_7524_18311" x="-122.109" y="361" width="124.219" height="124.219" filterUnits="userSpaceOnUse" color-interpolation-filters="sRGB">
<feFlood flood-opacity="0" result="BackgroundImageFix"/>
<feBlend mode="normal" in="SourceGraphic" in2="BackgroundImageFix" result="shape"/>
<feTurbulence type="fractalNoise" baseFrequency="2 2" numOctaves="3" seed="7951" />
<feDisplacementMap in="shape" scale="3" xChannelSelector="R" yChannelSelector="G" result="displacedImage" width="100%" height="100%" />
<feMerge result="effect1_texture_7524_18311">
<feMergeNode in="displacedImage"/>
</feMerge>
</filter>
<filter id="filter1_g_7524_18311" x="-2.10938" y="361" width="124.219" height="124.219" filterUnits="userSpaceOnUse" color-interpolation-filters="sRGB">
<feFlood flood-opacity="0" result="BackgroundImageFix"/>
<feBlend mode="normal" in="SourceGraphic" in2="BackgroundImageFix" result="shape"/>
<feTurbulence type="fractalNoise" baseFrequency="2 2" numOctaves="3" seed="7951" />
<feDisplacementMap in="shape" scale="3" xChannelSelector="R" yChannelSelector="G" result="displacedImage" width="100%" height="100%" />
<feMerge result="effect1_texture_7524_18311">
<feMergeNode in="displacedImage"/>
</feMerge>
</filter>
<filter id="filter2_g_7524_18311" x="117.891" y="361" width="124.219" height="124.219" filterUnits="userSpaceOnUse" color-interpolation-filters="sRGB">
<feFlood flood-opacity="0" result="BackgroundImageFix"/>
<feBlend mode="normal" in="SourceGraphic" in2="BackgroundImageFix" result="shape"/>
<feTurbulence type="fractalNoise" baseFrequency="2 2" numOctaves="3" seed="7951" />
<feDisplacementMap in="shape" scale="3" xChannelSelector="R" yChannelSelector="G" result="displacedImage" width="100%" height="100%" />
<feMerge result="effect1_texture_7524_18311">
<feMergeNode in="displacedImage"/>
</feMerge>
</filter>
<filter id="filter3_g_7524_18311" x="357.891" y="361" width="124.219" height="124.219" filterUnits="userSpaceOnUse" color-interpolation-filters="sRGB">
<feFlood flood-opacity="0" result="BackgroundImageFix"/>
<feBlend mode="normal" in="SourceGraphic" in2="BackgroundImageFix" result="shape"/>
<feTurbulence type="fractalNoise" baseFrequency="2 2" numOctaves="3" seed="7951" />
<feDisplacementMap in="shape" scale="3" xChannelSelector="R" yChannelSelector="G" result="displacedImage" width="100%" height="100%" />
<feMerge result="effect1_texture_7524_18311">
<feMergeNode in="displacedImage"/>
</feMerge>
</filter>
<filter id="filter4_g_7524_18311" x="-2.10938" y="241" width="124.219" height="124.219" filterUnits="userSpaceOnUse" color-interpolation-filters="sRGB">
<feFlood flood-opacity="0" result="BackgroundImageFix"/>
<feBlend mode="normal" in="SourceGraphic" in2="BackgroundImageFix" result="shape"/>
<feTurbulence type="fractalNoise" baseFrequency="2 2" numOctaves="3" seed="7951" />
<feDisplacementMap in="shape" scale="3" xChannelSelector="R" yChannelSelector="G" result="displacedImage" width="100%" height="100%" />
<feMerge result="effect1_texture_7524_18311">
<feMergeNode in="displacedImage"/>
</feMerge>
</filter>
</defs>
</svg>
