<svg width="69" height="69" viewBox="0 0 69 69" fill="none" xmlns="http://www.w3.org/2000/svg">
<g filter="url(#filter0_g_5640_32358)">
<path d="M60.1401 53.6244L53.6242 60.1403L40.5932 47.1092L47.1091 40.5933L60.1401 53.6244ZM40.5939 60.1403L34.078 66.6561L27.5621 60.1403L34.078 53.6244L40.5939 60.1403ZM66.656 34.0781L60.1401 40.594L53.6242 34.0781L60.1401 27.5622L66.656 34.0781ZM40.5932 47.1092L34.078 53.6244L27.5628 47.1092L34.078 40.594L40.5932 47.1092ZM53.6242 34.0781L47.1091 40.5933L40.5939 34.0781L47.1091 27.5629L53.6242 34.0781ZM27.5628 47.1092L14.5317 60.1403L8.01586 53.6244L21.0469 40.5933L27.5628 47.1092ZM60.1401 14.5319L47.1091 27.5629L40.5932 21.0471L53.6242 8.01599L60.1401 14.5319ZM27.5621 34.0781L21.0469 40.5933L14.5317 34.0781L21.0469 27.5629L27.5621 34.0781ZM40.5932 21.0471L34.078 27.5622L27.5628 21.0471L34.078 14.5319L40.5932 21.0471ZM14.5317 34.0781L8.01586 40.594L1.49998 34.0781L8.01586 27.5622L14.5317 34.0781ZM27.5628 21.0471L21.0469 27.5629L8.01586 14.5319L14.5317 8.01599L27.5628 21.0471ZM40.5939 8.01599L34.078 14.5319L27.5621 8.01599L34.078 1.50011L40.5939 8.01599Z" fill="#0D0D0D"/>
</g>
<defs>
<filter id="filter0_g_5640_32358" x="0" y="0" width="68.156" height="68.1562" filterUnits="userSpaceOnUse" color-interpolation-filters="sRGB">
<feFlood flood-opacity="0" result="BackgroundImageFix"/>
<feBlend mode="normal" in="SourceGraphic" in2="BackgroundImageFix" result="shape"/>
<feTurbulence type="fractalNoise" baseFrequency="2 2" numOctaves="3" seed="7951" />
<feDisplacementMap in="shape" scale="3" xChannelSelector="R" yChannelSelector="G" result="displacedImage" width="100%" height="100%" />
<feMerge result="effect1_texture_5640_32358">
<feMergeNode in="displacedImage"/>
</feMerge>
</filter>
</defs>
</svg>
