<svg width="349" height="284" viewBox="0 0 349 284" fill="none" xmlns="http://www.w3.org/2000/svg">
<path d="M226.503 6.41016L226.501 6.41211L226.56 6.4707L213.623 19.4072L220.093 25.877L233.029 12.9404L233.353 13.2637L233.354 13.2607L239.5 19.4062V19.4082L233.031 25.877L239.404 32.249L233.031 38.623L239.5 45.0908V45.0928L233.033 51.5596L233.026 51.5527L233.024 51.5547L220.093 38.623L214.357 44.3574L246.643 76.6426L252.878 70.4072L239.951 57.4814L239.969 57.4658L239.955 57.4521L246.408 51L252.878 57.4688L259.25 51.0957L265.623 57.4688L272.093 51L278.503 57.4102L278.501 57.4121L278.56 57.4707L265.623 70.4072L272.093 76.877L285.029 63.9404L285.353 64.2637L285.354 64.2607L291.5 70.4062V70.4082L285.031 76.877L291.404 83.249L285.031 89.623L291.5 96.0908V96.0928L285.033 102.56L285.026 102.553L285.024 102.555L272.093 89.623L265.857 95.8574L304.143 134.143L309.878 128.407L296.951 115.481L296.969 115.466L296.955 115.452L303.408 109L309.878 115.469L316.25 109.096L322.623 115.469L329.093 109L335.503 115.41L335.501 115.412L335.56 115.471L322.623 128.407L329.093 134.877L342.029 121.94L342.353 122.264L342.354 122.261L348.5 128.406V128.408L342.031 134.877L348.404 141.249L342.031 147.623L348.5 154.091V154.093L342.033 160.56L342.026 160.553L342.024 160.555L329.093 147.623L322.623 154.092L335.555 167.023L335.175 167.404L335.181 167.41L329.093 173.5L322.623 167.03L316.25 173.403L309.878 167.03L303.408 173.5L297.096 167.188L297.106 167.177L296.948 167.02L309.877 154.092L304.395 148.609L266.109 186.894L272.093 192.877L285.029 179.94L285.353 180.264L285.354 180.261L291.5 186.406V186.408L285.031 192.877L291.404 199.249L285.031 205.623L291.5 212.091V212.093L285.033 218.56L285.026 218.553L285.024 218.555L272.093 205.623L265.623 212.092L278.555 225.023L278.175 225.404L278.181 225.41L272.093 231.5L265.623 225.03L259.25 231.403L252.878 225.03L246.408 231.5L240.096 225.188L240.106 225.177L239.948 225.02L252.877 212.092L246.895 206.109L213.609 239.394L219.093 244.877L232.029 231.94L232.353 232.264L232.354 232.261L238.5 238.406V238.408L232.031 244.877L238.404 251.249L232.031 257.623L238.5 264.091V264.093L232.033 270.56L232.026 270.553L232.024 270.555L219.093 257.623L212.623 264.092L225.555 277.023L225.175 277.404L225.181 277.41L219.093 283.5L212.623 277.03L206.25 283.403L199.878 277.03L193.408 283.5L187.096 277.188L187.106 277.177L186.948 277.02L199.877 264.092L194.395 258.609L174.502 278.502L153.857 257.857L147.623 264.092L160.555 277.023L160.175 277.404L160.181 277.41L154.093 283.5L147.623 277.03L141.25 283.403L134.878 277.03L128.408 283.5L122.096 277.188L122.106 277.177L121.948 277.02L134.877 264.092L128.408 257.623L115.479 270.551L115.334 270.405L115.323 270.415L109.001 264.092L109 264.093V264.091L109.001 264.092L115.47 257.623L109.097 251.249L115.47 244.877L109.001 238.407L109 238.408V238.406L109.001 238.407L115.47 231.938L128.408 244.877L134.643 238.643L102.857 206.857L97.623 212.092L110.555 225.023L110.175 225.404L110.181 225.41L104.093 231.5L97.623 225.03L91.25 231.403L84.8779 225.03L78.4082 231.5L72.0957 225.188L72.1064 225.177L71.9482 225.02L84.877 212.092L78.4082 205.623L65.4795 218.551L65.334 218.405L65.3232 218.415L59.001 212.092L59 212.093V212.091L59.001 212.092L65.4697 205.623L59.0967 199.249L65.4697 192.877L59.001 186.407L59 186.408V186.406L59.001 186.407L65.4697 179.938L78.4082 192.877L83.6426 187.643L44.8574 148.857L38.623 155.092L51.5547 168.023L51.1748 168.404L51.1807 168.41L45.0928 174.5L38.623 168.03L32.25 174.403L25.8779 168.03L19.4082 174.5L13.0957 168.188L13.1064 168.177L12.9482 168.02L25.877 155.092L19.4082 148.623L6.47949 161.551L6.33398 161.405L6.32324 161.415L0.000976562 155.092L0 155.093V155.091L0.000976562 155.092L6.46973 148.623L0.0966797 142.249L6.46973 135.877L0.000976562 129.407L0 129.408V129.406L0.000976562 129.407L6.46973 122.938L19.4082 135.877L25.8779 129.407L12.9512 116.481L12.9688 116.466L12.9551 116.452L19.4082 110L25.8779 116.469L32.25 110.096L38.623 116.469L45.0928 110L51.5029 116.41L51.501 116.412L51.5596 116.471L38.623 129.407L44.1094 134.894L83.8945 95.1094L78.4082 89.623L65.4795 102.551L65.334 102.405L65.3232 102.415L59.001 96.0918L59 96.0928V96.0908L59.001 96.0918L65.4697 89.623L59.0967 83.249L65.4697 76.877L59.001 70.4072L59 70.4082V70.4062L59.001 70.4072L65.4697 63.9385L78.4082 76.877L84.8779 70.4072L71.9512 57.4814L71.9688 57.4658L71.9551 57.4521L78.4082 51L84.8779 57.4688L91.25 51.0957L97.623 57.4688L104.093 51L110.503 57.4102L110.501 57.4121L110.56 57.4707L97.623 70.4072L103.109 75.8936L134.895 44.1094L129.408 38.623L116.479 51.5508L116.334 51.4053L116.323 51.415L110.001 45.0918L110 45.0928V45.0908L110.001 45.0918L116.47 38.623L110.097 32.249L116.47 25.877L110.001 19.4072L110 19.4082V19.4062L110.001 19.4072L116.47 12.9385L129.408 25.877L135.878 19.4072L122.951 6.48145L122.969 6.46582L122.955 6.45215L129.408 0L135.878 6.46875L142.25 0.0957031L148.623 6.46875L155.093 0L161.503 6.41016L161.501 6.41211L161.56 6.4707L148.623 19.4072L154.109 24.8936L174.502 4.50195L195.143 25.1426L200.878 19.4072L187.951 6.48145L187.969 6.46582L187.955 6.45215L194.408 0L200.878 6.46875L207.25 0.0957031L213.623 6.46875L220.093 0L226.503 6.41016Z" fill="#D9D9D9"/>
</svg>
