<svg viewBox="0 0 645 579" fill="none" xmlns="http://www.w3.org/2000/svg" id='patternForVideo'>
<path d="M373.503 6.41016L373.501 6.41211L373.56 6.4707L360.623 19.4072L367.093 25.877L380.029 12.9404L380.353 13.2637L380.354 13.2607L386.5 19.4062V19.4082L380.031 25.877L386.404 32.249L380.031 38.623L386.5 45.0908V45.0928L380.033 51.5596L380.026 51.5527L380.024 51.5547L367.093 38.623L361.229 44.4863L406.514 89.7715L412.878 83.4072L399.951 70.4814L399.969 70.4658L399.955 70.4521L406.408 64L412.878 70.4688L419.25 64.0957L425.623 70.4688L432.093 64L438.503 70.4102L438.501 70.4121L438.56 70.4707L425.623 83.4072L432.093 89.877L445.029 76.9404L445.353 77.2637L445.354 77.2607L451.5 83.4062V83.4082L445.031 89.877L451.404 96.249L445.031 102.623L451.5 109.091V109.093L445.033 115.56L445.026 115.553L445.024 115.555L432.093 102.623L425.729 108.986L470.514 153.771L476.878 147.407L463.951 134.481L463.969 134.466L463.955 134.452L470.408 128L476.878 134.469L483.25 128.096L489.623 134.469L496.093 128L502.503 134.41L502.501 134.412L502.56 134.471L489.623 147.407L496.093 153.877L509.029 140.94L509.353 141.264L509.354 141.261L515.5 147.406V147.408L509.031 153.877L515.404 160.249L509.031 166.623L515.5 173.091V173.093L509.033 179.56L509.026 179.553L509.024 179.555L496.093 166.623L489.729 172.986L534.514 217.771L540.878 211.407L527.951 198.481L527.969 198.466L527.955 198.452L534.408 192L540.878 198.469L547.25 192.096L553.623 198.469L560.093 192L566.503 198.41L566.501 198.412L566.56 198.471L553.623 211.407L560.093 217.877L573.029 204.94L573.353 205.264L573.354 205.261L579.5 211.406V211.408L573.031 217.877L579.404 224.249L573.031 230.623L579.5 237.091V237.093L573.033 243.56L573.026 243.553L573.024 243.555L560.093 230.623L553.729 236.986L599.514 282.771L605.878 276.407L592.951 263.481L592.969 263.466L592.955 263.452L599.408 257L605.878 263.469L612.25 257.096L618.623 263.469L625.093 257L631.503 263.41L631.501 263.412L631.56 263.471L618.623 276.407L625.093 282.877L638.029 269.94L638.353 270.264L638.354 270.261L644.5 276.406V276.408L638.031 282.877L644.404 289.249L638.031 295.623L644.5 302.091V302.093L638.033 308.56L638.026 308.553L638.024 308.555L625.093 295.623L618.623 302.092L631.555 315.023L631.175 315.404L631.181 315.41L625.093 321.5L618.623 315.03L612.25 321.403L605.878 315.03L599.408 321.5L593.096 315.188L593.106 315.177L592.948 315.02L605.877 302.092L599.982 296.197L554.698 341.482L561.093 347.877L574.029 334.94L574.353 335.264L574.354 335.261L580.5 341.406V341.408L574.031 347.877L580.404 354.249L574.031 360.623L580.5 367.091V367.093L574.033 373.56L574.026 373.553L574.024 373.555L561.093 360.623L554.623 367.092L567.555 380.023L567.175 380.404L567.181 380.41L561.093 386.5L554.623 380.03L548.25 386.403L541.878 380.03L535.408 386.5L529.096 380.188L529.106 380.177L528.948 380.02L541.877 367.092L535.482 360.697L490.198 405.982L496.093 411.877L509.029 398.94L509.353 399.264L509.354 399.261L515.5 405.406V405.408L509.031 411.877L515.404 418.249L509.031 424.623L515.5 431.091V431.093L509.033 437.56L509.026 437.553L509.024 437.555L496.093 424.623L489.623 431.092L502.555 444.023L502.175 444.404L502.181 444.41L496.093 450.5L489.623 444.03L483.25 450.403L476.878 444.03L470.408 450.5L464.096 444.188L464.106 444.177L463.948 444.02L476.877 431.092L470.982 425.197L425.698 470.482L431.093 475.877L444.029 462.94L444.353 463.264L444.354 463.261L450.5 469.406V469.408L444.031 475.877L450.404 482.249L444.031 488.623L450.5 495.091V495.093L444.033 501.56L444.026 501.553L444.024 501.555L431.093 488.623L424.623 495.092L437.555 508.023L437.175 508.404L437.181 508.41L431.093 514.5L424.623 508.03L418.25 514.403L411.878 508.03L405.408 514.5L399.096 508.188L399.106 508.177L398.948 508.02L411.877 495.092L406.482 489.697L361.698 534.482L367.093 539.877L380.029 526.94L380.353 527.264L380.354 527.261L386.5 533.406V533.408L380.031 539.877L386.404 546.249L380.031 552.623L386.5 559.091V559.093L380.033 565.56L380.026 565.553L380.024 565.555L367.093 552.623L360.623 559.092L373.555 572.023L373.175 572.404L373.181 572.41L367.093 578.5L360.623 572.03L354.25 578.403L347.878 572.03L341.408 578.5L335.096 572.188L335.106 572.177L334.948 572.02L347.877 559.092L342.482 553.697L322.925 573.256L302.692 553.022L296.623 559.092L309.555 572.023L309.175 572.404L309.181 572.41L303.093 578.5L296.623 572.03L290.25 578.403L283.878 572.03L277.408 578.5L271.096 572.188L271.106 572.177L270.948 572.02L283.877 559.092L277.408 552.623L264.479 565.551L264.334 565.405L264.323 565.415L258.001 559.092L258 559.093V559.091L258.001 559.092L264.47 552.623L258.097 546.249L264.47 539.877L258.001 533.407L258 533.408V533.406L258.001 533.407L264.47 526.938L277.408 539.877L283.477 533.808L251.131 501.461L251.033 501.56L251.026 501.553L251.024 501.555L238.093 488.623L231.623 495.092L244.555 508.023L244.175 508.404L244.181 508.41L238.093 514.5L231.623 508.03L225.25 514.403L218.878 508.03L212.408 514.5L206.096 508.188L206.106 508.177L205.948 508.02L218.877 495.092L212.408 488.623L199.479 501.551L199.334 501.405L199.323 501.415L193.001 495.092L193 495.093V495.091L193.001 495.092L199.47 488.623L193.097 482.249L199.47 475.877L193.001 469.407L193 469.408V469.406L193.001 469.407L199.47 462.938L212.408 475.877L218.878 469.407L205.951 456.481L205.969 456.466L205.955 456.452L206.038 456.368L187.131 437.461L187.033 437.56L187.026 437.553L187.024 437.555L174.093 424.623L167.623 431.092L180.555 444.023L180.175 444.404L180.181 444.41L174.093 450.5L167.623 444.03L161.25 450.403L154.878 444.03L148.408 450.5L142.096 444.188L142.106 444.177L141.948 444.02L154.877 431.092L148.408 424.623L135.479 437.551L135.334 437.405L135.323 437.415L129.001 431.092L129 431.093V431.091L129.001 431.092L135.47 424.623L129.097 418.249L135.47 411.877L129.001 405.407L129 405.408V405.406L129.001 405.407L135.47 398.938L148.408 411.877L154.878 405.407L141.951 392.481L141.969 392.466L141.955 392.452L142.038 392.368L123.131 373.461L123.033 373.56L123.026 373.553L123.024 373.555L110.093 360.623L103.623 367.092L116.555 380.023L116.175 380.404L116.181 380.41L110.093 386.5L103.623 380.03L97.25 386.403L90.8779 380.03L84.4082 386.5L78.0957 380.188L78.1064 380.177L77.9482 380.02L90.877 367.092L84.4082 360.623L71.4795 373.551L71.334 373.405L71.3232 373.415L65.001 367.092L65 367.093V367.091L65.001 367.092L71.4697 360.623L65.0967 354.249L71.4697 347.877L65.001 341.407L65 341.408V341.406L65.001 341.407L71.4697 334.938L84.4082 347.877L90.8779 341.407L77.9512 328.481L77.9688 328.466L77.9551 328.452L78.0381 328.368L58.1309 308.461L58.0332 308.56L58.0264 308.553L58.0244 308.555L45.0928 295.623L38.623 302.092L51.5547 315.023L51.1748 315.404L51.1807 315.41L45.0928 321.5L38.623 315.03L32.25 321.403L25.8779 315.03L19.4082 321.5L13.0957 315.188L13.1064 315.177L12.9482 315.02L25.877 302.092L19.4082 295.623L6.47949 308.551L6.33398 308.405L6.32324 308.415L0.000976562 302.092L0 302.093V302.091L0.000976562 302.092L6.46973 295.623L0.0966797 289.249L6.46973 282.877L0.000976562 276.407L0 276.408V276.406L0.000976562 276.407L6.46973 269.938L19.4082 282.877L25.8779 276.407L12.9512 263.481L12.9688 263.466L12.9551 263.452L19.4082 257L25.8779 263.469L32.25 257.096L38.623 263.469L45.0928 257L51.5029 263.41L51.501 263.412L51.5596 263.471L38.623 276.407L44.9541 282.738L77.3008 250.393L77.0957 250.188L77.1064 250.177L76.9482 250.02L89.877 237.092L83.4082 230.623L70.4795 243.551L70.334 243.405L70.3232 243.415L64.001 237.092L64 237.093V237.091L64.001 237.092L70.4697 230.623L64.0967 224.249L70.4697 217.877L64.001 211.407L64 211.408V211.406L64.001 211.407L70.4697 204.938L83.4082 217.877L89.8779 211.407L76.9512 198.481L76.9688 198.466L76.9551 198.452L83.4082 192L89.8779 198.469L96.25 192.096L102.623 198.469L109.093 192L115.503 198.41L115.501 198.412L115.56 198.471L102.623 211.407L109.093 217.877L122.029 204.94L122.353 205.264L122.354 205.261L122.394 205.3L141.301 186.393L141.096 186.188L141.106 186.177L140.948 186.02L153.877 173.092L147.408 166.623L134.479 179.551L134.334 179.405L134.323 179.415L128.001 173.092L128 173.093V173.091L128.001 173.092L134.47 166.623L128.097 160.249L134.47 153.877L128.001 147.407L128 147.408V147.406L128.001 147.407L134.47 140.938L147.408 153.877L153.878 147.407L140.951 134.481L140.969 134.466L140.955 134.452L147.408 128L153.878 134.469L160.25 128.096L166.623 134.469L173.093 128L179.503 134.41L179.501 134.412L179.56 134.471L166.623 147.407L173.093 153.877L186.029 140.94L186.353 141.264L186.354 141.261L186.394 141.3L218.739 108.954L212.408 102.623L199.479 115.551L199.334 115.405L199.323 115.415L193.001 109.092L193 109.093V109.091L193.001 109.092L199.47 102.623L193.097 96.249L199.47 89.877L193.001 83.4072L193 83.4082V83.4062L193.001 83.4072L199.47 76.9385L212.408 89.877L218.878 83.4072L205.951 70.4814L205.969 70.4658L205.955 70.4521L212.408 64L218.878 70.4688L225.25 64.0957L231.623 70.4688L238.093 64L244.503 70.4102L244.501 70.4121L244.56 70.4707L231.623 83.4072L237.954 89.7383L283.239 44.4541L277.408 38.623L264.479 51.5508L264.334 51.4053L264.323 51.415L258.001 45.0918L258 45.0928V45.0908L258.001 45.0918L264.47 38.623L258.097 32.249L264.47 25.877L258.001 19.4072L258 19.4082V19.4062L258.001 19.4072L264.47 12.9385L277.408 25.877L283.878 19.4072L270.951 6.48145L270.969 6.46582L270.955 6.45215L277.408 0L283.878 6.46875L290.25 0.0957031L296.623 6.46875L303.093 0L309.503 6.41016L309.501 6.41211L309.56 6.4707L296.623 19.4072L302.454 25.2383L322.218 5.47559L342.014 25.2715L347.878 19.4072L334.951 6.48145L334.969 6.46582L334.955 6.45215L341.408 0L347.878 6.46875L354.25 0.0957031L360.623 6.46875L367.093 0L373.503 6.41016Z" fill="#F7F7F7"/>
</svg>
