<svg width="704" height="888" viewBox="0 0 704 888" fill="none" xmlns="http://www.w3.org/2000/svg">
<path fill-rule="evenodd" clip-rule="evenodd" d="M497.503 6.41016L497.501 6.41211L497.56 6.4707L484.623 19.4072L491.093 25.877L504.029 12.9404L504.353 13.2637L504.354 13.2607L510.5 19.4062V19.4082L504.031 25.877L510.404 32.249L504.031 38.623L510.5 45.0908V45.0928L504.033 51.5596L504.026 51.5527L504.024 51.5547L491.093 38.623L484.9 44.8135L529.686 89.5986L535.878 83.4072L522.951 70.4814L522.969 70.4658L522.955 70.4521L529.408 64L535.878 70.4688L542.25 64.0957L548.623 70.4688L555.093 64L561.503 70.4102L561.501 70.4121L561.56 70.4707L548.623 83.4072L555.093 89.877L568.029 76.9404L568.353 77.2637L568.354 77.2607L574.5 83.4062V83.4082L568.031 89.877L574.404 96.249L568.031 102.623L574.5 109.091V109.093L568.033 115.56L568.026 115.553L568.024 115.555L555.093 102.623L548.9 108.813L581.247 141.16L581.47 140.938L594.408 153.877L600.878 147.407L587.951 134.481L587.969 134.466L587.955 134.452L594.408 128L600.878 134.469L607.25 128.096L613.623 134.469L620.093 128L626.503 134.41L626.501 134.412L626.56 134.471L613.623 147.407L620.093 153.877L633.029 140.94L633.353 141.264L633.354 141.261L639.5 147.406V147.408L633.031 153.877L639.404 160.249L633.031 166.623L639.5 173.091V173.093L633.033 179.56L633.026 179.553L633.024 179.555L620.093 166.623L613.623 173.092L626.555 186.023L626.332 186.245L645.247 205.16L645.47 204.938L658.408 217.877L664.878 211.407L651.951 198.481L651.969 198.466L651.955 198.452L658.408 192L664.878 198.469L671.25 192.096L677.623 198.469L684.093 192L690.503 198.41L690.501 198.412L690.56 198.471L677.623 211.407L684.093 217.877L697.029 204.94L697.353 205.264L697.354 205.261L703.5 211.406V211.408L697.031 217.877L703.404 224.249L697.031 230.623L703.5 237.091V237.093L697.033 243.56L697.026 243.553L697.024 243.555L684.093 230.623L677.623 237.092L690.555 250.023L690.175 250.404L690.181 250.41L684.093 256.5L677.623 250.03L671.25 256.403L664.878 250.03L658.408 256.5L652.096 250.188L652.106 250.177L651.948 250.02L664.877 237.092L659.018 231.232L613.733 276.518L620.093 282.877L633.029 269.94L633.353 270.264L633.354 270.261L639.5 276.406V276.408L633.031 282.877L639.404 289.249L633.031 295.623L639.5 302.091V302.093L633.033 308.56L633.026 308.553L633.024 308.555L620.093 295.623L613.623 302.092L626.555 315.023L626.175 315.404L626.181 315.41L620.093 321.5L613.623 315.03L607.25 321.403L600.878 315.03L594.408 321.5L588.096 315.188L588.106 315.177L587.948 315.02L600.877 302.092L594.518 295.732L548.733 341.518L555.093 347.877L568.029 334.94L568.353 335.264L568.354 335.261L574.5 341.406V341.408L568.031 347.877L574.404 354.249L568.031 360.623L574.5 367.091V367.093L568.033 373.56L568.026 373.553L568.024 373.555L555.093 360.623L548.623 367.092L561.555 380.023L561.175 380.404L561.181 380.41L555.093 386.5L548.623 380.03L542.25 386.403L535.878 380.03L529.408 386.5L523.096 380.188L523.106 380.177L522.948 380.02L535.877 367.092L529.518 360.732L484.733 405.518L491.093 411.877L504.029 398.94L504.353 399.264L504.354 399.261L510.5 405.406V405.408L504.031 411.877L510.404 418.249L504.031 424.623L510.5 431.091V431.093L504.033 437.56L504.026 437.553L504.024 437.555L491.093 424.623L484.623 431.092L497.555 444.023L497.175 444.404L497.181 444.41L491.093 450.5L484.623 444.03L478.25 450.403L471.878 444.03L465.408 450.5L459.096 444.188L459.106 444.177L458.948 444.02L471.877 431.092L465.408 424.623L452.479 437.551L452.334 437.405L452.323 437.415L446.001 431.092L446 431.093V431.091L446.001 431.092L446.152 430.94L431.963 416.751L426.154 422.56L439.383 435.787L432.131 443.038L432.503 443.41L432.501 443.412L432.56 443.471L419.623 456.407L426.093 462.877L439.029 449.94L439.353 450.264L439.354 450.261L445.5 456.406V456.408L439.031 462.877L445.404 469.249L439.031 475.623L445.5 482.091V482.093L439.033 488.56L439.026 488.553L439.024 488.555L426.093 475.623L419.9 481.813L464.686 526.599L470.878 520.407L457.951 507.481L457.969 507.466L457.955 507.452L464.408 501L470.878 507.469L477.25 501.096L483.623 507.469L490.093 501L496.503 507.41L496.501 507.412L496.56 507.471L483.623 520.407L490.093 526.877L503.029 513.94L503.353 514.264L503.354 514.261L509.5 520.406V520.408L503.031 526.877L509.404 533.249L503.031 539.623L509.5 546.091V546.093L503.033 552.56L503.026 552.553L503.024 552.555L490.093 539.623L483.9 545.813L516.247 578.16L516.47 577.938L529.408 590.877L535.878 584.407L522.951 571.481L522.969 571.466L522.955 571.452L529.408 565L535.878 571.469L542.25 565.096L548.623 571.469L555.093 565L561.503 571.41L561.501 571.412L561.56 571.471L548.623 584.407L555.093 590.877L568.029 577.94L568.353 578.264L568.354 578.261L574.5 584.406V584.408L568.031 590.877L574.404 597.249L568.031 603.623L574.5 610.091V610.093L568.033 616.56L568.026 616.553L568.024 616.555L555.093 603.623L548.623 610.092L561.555 623.023L561.332 623.245L580.247 642.16L580.47 641.938L593.408 654.877L599.878 648.407L586.951 635.481L586.969 635.466L586.955 635.452L593.408 629L599.878 635.469L606.25 629.096L612.623 635.469L619.093 629L625.503 635.41L625.501 635.412L625.56 635.471L612.623 648.407L619.093 654.877L632.029 641.94L632.353 642.264L632.354 642.261L638.5 648.406V648.408L632.031 654.877L638.404 661.249L632.031 667.623L638.5 674.091V674.093L632.033 680.56L632.026 680.553L632.024 680.555L619.093 667.623L612.623 674.092L625.555 687.023L625.175 687.404L625.181 687.41L619.093 693.5L612.623 687.03L606.25 693.403L599.878 687.03L593.408 693.5L587.096 687.188L587.106 687.177L586.948 687.02L599.877 674.092L594.018 668.232L548.733 713.518L555.093 719.877L568.029 706.94L568.353 707.264L568.354 707.261L574.5 713.406V713.408L568.031 719.877L574.404 726.249L568.031 732.623L574.5 739.091V739.093L568.033 745.56L568.026 745.553L568.024 745.555L555.093 732.623L548.623 739.092L561.555 752.023L561.175 752.404L561.181 752.41L555.093 758.5L548.623 752.03L542.25 758.403L535.878 752.03L529.408 758.5L523.096 752.188L523.106 752.177L522.948 752.02L535.877 739.092L529.518 732.732L483.733 778.518L490.093 784.877L503.029 771.94L503.353 772.264L503.354 772.261L509.5 778.406V778.408L503.031 784.877L509.404 791.249L503.031 797.623L509.5 804.091V804.093L503.033 810.56L503.026 810.553L503.024 810.555L490.093 797.623L483.623 804.092L496.555 817.023L496.175 817.404L496.181 817.41L490.093 823.5L483.623 817.03L477.25 823.403L470.878 817.03L464.408 823.5L458.096 817.188L458.106 817.177L457.948 817.02L470.877 804.092L464.518 797.732L419.733 842.518L426.093 848.877L439.029 835.94L439.353 836.264L439.354 836.261L445.5 842.406V842.408L439.031 848.877L445.404 855.249L439.031 861.623L445.5 868.091V868.093L439.033 874.56L439.026 874.553L439.024 874.555L426.093 861.623L419.623 868.092L432.555 881.023L432.175 881.404L432.181 881.41L426.093 887.5L419.623 881.03L413.25 887.403L406.878 881.03L400.408 887.5L394.096 881.188L394.106 881.177L393.948 881.02L406.877 868.092L400.408 861.623L387.479 874.551L387.334 874.405L387.323 874.415L381.001 868.092L381 868.093V868.091L381.001 868.092L387.47 861.623L381.097 855.249L387.47 848.877L381.001 842.407L381 842.408V842.406L381.001 842.407L387.47 835.938L400.408 848.877L406.444 842.84L374.099 810.494L374.033 810.56L374.026 810.553L374.024 810.555L361.093 797.623L354.623 804.092L367.555 817.023L367.175 817.404L367.181 817.41L361.093 823.5L354.623 817.03L348.25 823.403L341.878 817.03L335.408 823.5L329.096 817.188L329.106 817.177L328.948 817.02L341.877 804.092L335.408 797.623L322.479 810.551L322.334 810.405L322.323 810.415L316.001 804.092L316 804.093V804.091L316.001 804.092L322.47 797.623L316.097 791.249L322.47 784.877L316.001 778.407L316 778.408V778.406L316.001 778.407L322.47 771.938L335.408 784.877L341.878 778.407L328.951 765.481L328.969 765.466L328.955 765.452L329.006 765.401L296.659 733.055L290.623 739.092L303.555 752.023L303.175 752.404L303.181 752.41L297.093 758.5L290.623 752.03L284.25 758.403L277.878 752.03L271.408 758.5L265.096 752.188L265.106 752.177L264.948 752.02L277.877 739.092L271.408 732.623L258.479 745.551L258.334 745.405L258.323 745.415L252.001 739.092L252 739.093V739.091L252.001 739.092L258.47 732.623L252.097 726.249L258.47 719.877L252.001 713.407L252 713.408V713.406L252.001 713.407L258.47 706.938L271.408 719.877L277.444 713.84L231.659 668.055L225.623 674.092L238.555 687.023L238.175 687.404L238.181 687.41L232.093 693.5L225.623 687.03L219.25 693.403L212.878 687.03L206.408 693.5L200.096 687.188L200.106 687.177L199.948 687.02L212.877 674.092L206.408 667.623L193.479 680.551L193.334 680.405L193.323 680.415L187.001 674.092L187 674.093V674.091L187.001 674.092L193.47 667.623L187.097 661.249L193.47 654.877L187.001 648.407L187 648.408V648.406L187.001 648.407L193.47 641.938L206.408 654.877L212.345 648.939L200 636.595L200.532 636.062L199.951 635.481L199.969 635.466L199.955 635.452L206.408 629L207.001 629.593L219.689 616.904L213.408 610.623L200.479 623.551L200.334 623.405L200.323 623.415L194.001 617.092L194 617.093V617.091L194.001 617.092L200.47 610.623L194.097 604.249L200.47 597.877L194.001 591.407L194 591.408V591.406L194.001 591.407L200.47 584.938L213.408 597.877L219.444 591.84L187.099 559.494L187.033 559.56L187.026 559.553L187.024 559.555L174.093 546.623L167.623 553.092L180.555 566.023L180.175 566.404L180.181 566.41L174.093 572.5L167.623 566.03L161.25 572.403L154.878 566.03L148.408 572.5L142.096 566.188L142.106 566.177L141.948 566.02L154.877 553.092L148.408 546.623L135.479 559.551L135.334 559.405L135.323 559.415L129.001 553.092L129 553.093V553.091L129.001 553.092L135.47 546.623L129.097 540.249L135.47 533.877L129.001 527.407L129 527.408V527.406L129.001 527.407L135.47 520.938L148.408 533.877L154.878 527.407L141.951 514.481L141.969 514.466L141.955 514.452L142.006 514.401L109.659 482.055L103.623 488.092L116.555 501.023L116.175 501.404L116.181 501.41L110.093 507.5L103.623 501.03L97.25 507.403L90.8779 501.03L84.4082 507.5L78.0957 501.188L78.1064 501.177L77.9482 501.02L90.877 488.092L84.4082 481.623L71.4795 494.551L71.334 494.405L71.3232 494.415L65.001 488.092L65 488.093V488.091L65.001 488.092L71.4697 481.623L65.0967 475.249L71.4697 468.877L65.001 462.407L65 462.408V462.406L65.001 462.407L71.4697 455.938L84.4082 468.877L90.4443 462.84L44.6592 417.055L38.623 423.092L51.5547 436.023L51.1748 436.404L51.1807 436.41L45.0928 442.5L38.623 436.03L32.25 442.403L25.8779 436.03L19.4082 442.5L13.0957 436.188L13.1064 436.177L12.9482 436.02L25.877 423.092L19.4082 416.623L6.47949 429.551L6.33398 429.405L6.32324 429.415L0.000976562 423.092L0 423.093V423.091L0.000976562 423.092L6.46973 416.623L0.0966797 410.249L6.46973 403.877L0.000976562 397.407L0 397.408V397.406L0.000976562 397.407L6.46973 390.938L19.4082 403.877L25.8779 397.407L12.9512 384.481L12.9688 384.466L12.9551 384.452L19.4082 378L25.8779 384.469L32.25 378.096L38.623 384.469L45.0928 378L51.5029 384.41L51.501 384.412L51.5596 384.471L38.623 397.407L44.6621 403.446L89.4463 358.661L83.4082 352.623L70.4795 365.551L70.334 365.405L70.3232 365.415L64.001 359.092L64 359.093V359.091L64.001 359.092L70.4697 352.623L64.0967 346.249L70.4697 339.877L64.001 333.407L64 333.408V333.406L64.001 333.407L70.4697 326.938L83.4082 339.877L89.8779 333.407L76.9512 320.481L76.9688 320.466L76.9551 320.452L83.4082 314L89.8779 320.469L96.25 314.096L102.623 320.469L109.093 314L115.503 320.41L115.501 320.412L115.56 320.471L102.623 333.407L108.662 339.446L153.946 294.161L148.408 288.623L135.479 301.551L135.334 301.405L135.323 301.415L129.001 295.092L129 295.093V295.091L129.001 295.092L135.47 288.623L129.097 282.249L135.47 275.877L129.001 269.407L129 269.408V269.406L129.001 269.407L135.47 262.938L148.408 275.877L154.878 269.407L141.951 256.481L141.969 256.466L141.955 256.452L148.408 250L154.878 256.469L161.25 250.096L167.623 256.469L174.093 250L180.503 256.41L180.501 256.412L180.56 256.471L167.623 269.407L173.162 274.946L218.446 229.661L213.408 224.623L200.479 237.551L200.334 237.405L200.323 237.415L194.001 231.092L194 231.093V231.091L194.001 231.092L200.47 224.623L194.097 218.249L200.47 211.877L194.001 205.407L194 205.408V205.406L194.001 205.407L200.47 198.938L213.408 211.877L219.878 205.407L206.951 192.481L206.969 192.466L206.955 192.452L213.408 186L219.878 192.469L226.25 186.096L232.623 192.469L239.093 186L245.503 192.41L245.501 192.412L245.56 192.471L232.623 205.407L238.849 211.633L252.071 198.411L271.473 217.812L277.878 211.407L264.951 198.481L264.969 198.466L264.955 198.452L271.408 192L277.878 198.469L284.25 192.096L290.623 198.469L297.093 192L303.503 198.41L303.501 198.412L303.56 198.471L290.623 211.407L296.662 217.446L341.446 172.661L335.408 166.623L322.479 179.551L322.334 179.405L322.323 179.415L316.001 173.092L316 173.093V173.091L316.001 173.092L322.47 166.623L316.097 160.249L322.47 153.877L316.001 147.407L316 147.408V147.406L316.001 147.407L322.47 140.938L335.408 153.877L341.878 147.407L328.951 134.481L328.969 134.466L328.955 134.452L335.408 128L341.878 134.469L348.25 128.096L354.623 134.469L361.093 128L367.503 134.41L367.501 134.412L367.56 134.471L354.623 147.407L360.662 153.446L405.946 108.161L400.408 102.623L387.479 115.551L387.334 115.405L387.323 115.415L381.001 109.092L381 109.093V109.091L381.001 109.092L387.47 102.623L381.097 96.249L387.47 89.877L381.001 83.4072L381 83.4082V83.4062L381.001 83.4072L387.47 76.9385L400.408 89.877L406.878 83.4072L393.951 70.4814L393.969 70.4658L393.955 70.4521L400.408 64L406.878 70.4688L413.25 64.0957L419.623 70.4688L426.093 64L432.503 70.4102L432.501 70.4121L432.56 70.4707L419.623 83.4072L425.162 88.9463L470.446 43.6611L465.408 38.623L452.479 51.5508L452.334 51.4053L452.323 51.415L446.001 45.0918L446 45.0928V45.0908L446.001 45.0918L452.47 38.623L446.097 32.249L452.47 25.877L446.001 19.4072L446 19.4082V19.4062L446.001 19.4072L452.47 12.9385L465.408 25.877L471.878 19.4072L458.951 6.48145L458.969 6.46582L458.955 6.45215L465.408 0L471.878 6.46875L478.25 0.0957031L484.623 6.46875L491.093 0L497.503 6.41016ZM258.289 616.88L258.5 617.091V617.093L252.033 623.56L252.026 623.553L252.024 623.555L251.819 623.35L251.787 623.383L239.06 610.655L233.154 616.56L246.383 629.787L226.692 649.477L231.662 654.446L276.446 609.661L270.978 604.192L258.289 616.88ZM232.733 591.518L238.405 597.189L251.094 584.5L251.001 584.407L251 584.408V584.406L251.001 584.407L257.47 577.938L257.562 578.031L258.595 577L271.439 589.845L276.845 584.439L264 571.595L264.032 571.562L263.951 571.481L263.969 571.466L263.955 571.452L270.408 565L270.501 565.093L283.189 552.404L277.518 546.732L232.733 591.518ZM322.289 552.88L322.5 553.091V553.093L316.033 559.56L316.026 559.553L316.024 559.555L315.819 559.35L315.787 559.383L303.06 546.655L297.654 552.06L310.383 564.787L309.351 565.819L309.555 566.023L309.175 566.404L309.181 566.41L303.093 572.5L302.881 572.288L290.192 584.977L295.662 590.446L340.946 545.161L335.478 539.692L322.289 552.88ZM296.733 527.518L302.405 533.189L322.595 513L335.939 526.345L341.845 520.439L329 507.595L329.032 507.562L328.951 507.481L328.969 507.466L328.955 507.452L335.408 501L335.501 501.093L348.689 487.904L342.518 481.732L296.733 527.518ZM380.787 496.383L367.06 482.655L362.154 487.56L375.383 500.787L355.192 520.977L360.162 525.946L405.446 480.661L400.978 476.192L380.787 496.383ZM361.733 462.518L368.093 468.877L381.029 455.94L381.248 456.159L387.47 449.938L387.562 450.031L387.595 450L400.439 462.845L406.845 456.439L393 442.595L412.689 422.904L407.018 417.232L361.733 462.518ZM420.251 366.463L431.939 378.152L432.093 378L438.503 384.41L438.501 384.412L438.56 384.471L438.408 384.621L440.383 386.595L427.597 399.381L432.093 403.877L445.029 390.94L445.353 391.264L445.354 391.261L445.44 391.347L445.787 391L466.036 411.248L471.444 405.84L439.099 373.494L439.033 373.56L439.026 373.553L439.024 373.555L426.093 360.623L420.251 366.463ZM361.623 359.092L374.555 372.023L374.332 372.245L393.247 391.16L393.47 390.938L406.408 403.877L412.248 398.036L400.56 386.348L400.408 386.5L394.096 380.188L394.106 380.177L393.948 380.02L394.09 379.878L394 379.788L406.786 367.001L400.408 360.623L387.479 373.551L387.334 373.405L387.323 373.415L381.001 367.092L381 367.093V367.091L381.001 367.092L381.152 366.94L367.463 353.251L361.623 359.092ZM356.098 301.615L375.077 320.595L361.943 333.728L368.001 339.785L380.787 327L380.878 327.091L381.029 326.94L381.353 327.264L381.354 327.261L387.5 333.406V333.408L387.348 333.56L401.036 347.248L406.878 341.407L393.951 328.481L393.969 328.466L393.955 328.452L394.006 328.401L361.659 296.055L356.098 301.615ZM296.9 294.813L329.247 327.16L329.47 326.938L342.408 339.877L348.596 333.688L328.695 313.788L341.634 300.849L336.424 295.639L323.289 308.774L316.054 301.539L316.033 301.56L316.026 301.553L316.024 301.555L303.093 288.623L296.9 294.813ZM290.623 237.092L303.555 250.023L303.529 250.047L311.077 257.595L297.943 270.728L303.045 275.829L316.177 262.697L323.443 269.964L323.47 269.938L336.408 282.877L342.444 276.84L296.659 231.055L290.623 237.092ZM232.9 230.813L277.686 275.599L283.878 269.407L270.951 256.481L270.969 256.466L270.955 256.452L270.962 256.444L265 250.482L265.195 250.287L265.096 250.188L265.106 250.177L264.948 250.02L277.877 237.092L272.229 231.443L258.991 244.681L239.013 224.702L232.9 230.813Z" fill="#0D0D0D"/>
</svg>
