<svg width="324" height="322" viewBox="0 0 324 322" fill="none" xmlns="http://www.w3.org/2000/svg">
<path d="M181.503 6.41016L181.501 6.41211L181.56 6.4707L168.623 19.4072L175.093 25.877L188.029 12.9404L188.353 13.2637L188.354 13.2607L194.5 19.4062V19.4082L188.031 25.877L194.404 32.249L188.031 38.623L194.5 45.0908V45.0928L188.033 51.5596L188.026 51.5527L188.024 51.5547L175.093 38.623L169.207 44.5078L213.992 89.293L219.878 83.4072L206.951 70.4814L206.969 70.4658L206.955 70.4521L213.408 64L219.878 70.4688L226.25 64.0957L232.623 70.4688L239.093 64L245.503 70.4102L245.501 70.4121L245.56 70.4707L232.623 83.4072L239.093 89.877L252.029 76.9404L252.353 77.2637L252.354 77.2607L258.5 83.4062V83.4082L252.031 89.877L258.404 96.249L252.031 102.623L258.5 109.091V109.093L252.033 115.56L252.026 115.553L252.024 115.555L239.093 102.623L233.207 108.508L278.492 153.793L284.878 147.407L271.951 134.481L271.969 134.466L271.955 134.452L278.408 128L284.878 134.469L291.25 128.096L297.623 134.469L304.093 128L310.503 134.41L310.501 134.412L310.56 134.471L297.623 147.407L304.093 153.877L317.029 140.94L317.353 141.264L317.354 141.261L323.5 147.406V147.408L317.031 153.877L323.404 160.249L317.031 166.623L323.5 173.091V173.093L317.033 179.56L317.026 179.553L317.024 179.555L304.093 166.623L297.623 173.092L310.555 186.023L310.175 186.404L310.181 186.41L304.093 192.5L297.623 186.03L291.25 192.403L284.878 186.03L278.408 192.5L272.096 186.188L272.106 186.177L271.948 186.02L284.877 173.092L278.582 166.797L233.297 212.081L239.093 217.877L252.029 204.94L252.353 205.264L252.354 205.261L258.5 211.406V211.408L252.031 217.877L258.404 224.249L252.031 230.623L258.5 237.091V237.093L252.033 243.56L252.026 243.553L252.024 243.555L239.093 230.623L232.623 237.092L245.555 250.023L245.175 250.404L245.181 250.41L239.093 256.5L232.623 250.03L226.25 256.403L219.878 250.03L213.408 256.5L207.096 250.188L207.106 250.177L206.948 250.02L219.877 237.092L214.082 231.297L168.797 276.581L175.093 282.877L188.029 269.94L188.353 270.264L188.354 270.261L194.5 276.406V276.408L188.031 282.877L194.404 289.249L188.031 295.623L194.5 302.091V302.093L188.033 308.56L188.026 308.553L188.024 308.555L175.093 295.623L168.623 302.092L181.555 315.023L181.175 315.404L181.181 315.41L175.093 321.5L168.623 315.03L162.25 321.403L155.878 315.03L149.408 321.5L143.096 315.188L143.106 315.177L142.948 315.02L155.877 302.092L149.408 295.623L136.479 308.551L136.334 308.405L136.323 308.415L130.001 302.092L130 302.093V302.091L130.001 302.092L136.47 295.623L130.097 289.249L136.47 282.877L130.001 276.407L130 276.408V276.406L130.001 276.407L136.47 269.938L149.408 282.877L154.655 277.63L108.87 231.845L103.623 237.092L116.555 250.023L116.175 250.404L116.181 250.41L110.093 256.5L103.623 250.03L97.25 256.403L90.8779 250.03L84.4082 256.5L78.0957 250.188L78.1064 250.177L77.9482 250.02L90.877 237.092L84.4082 230.623L71.4795 243.551L71.334 243.405L71.3232 243.415L65.001 237.092L65 237.093V237.091L65.001 237.092L71.4697 230.623L65.0967 224.249L71.4697 217.877L65.001 211.407L65 211.408V211.406L65.001 211.407L71.4697 204.938L84.4082 217.877L89.6553 212.63L44.3701 167.345L38.623 173.092L51.5547 186.023L51.1748 186.404L51.1807 186.41L45.0928 192.5L38.623 186.03L32.25 192.403L25.8779 186.03L19.4082 192.5L13.0957 186.188L13.1064 186.177L12.9482 186.02L25.877 173.092L19.4082 166.623L6.47949 179.551L6.33398 179.405L6.32324 179.415L0.000976562 173.092L0 173.093V173.091L0.000976562 173.092L6.46973 166.623L0.0966797 160.249L6.46973 153.877L0.000976562 147.407L0 147.408V147.406L0.000976562 147.407L6.46973 140.938L19.4082 153.877L25.8779 147.407L12.9512 134.481L12.9688 134.466L12.9551 134.452L19.4082 128L25.8779 134.469L32.25 128.096L38.623 134.469L45.0928 128L51.5029 134.41L51.501 134.412L51.5596 134.471L38.623 147.407L44.9971 153.781L90.2822 108.497L84.4082 102.623L71.4795 115.551L71.334 115.405L71.3232 115.415L65.001 109.092L65 109.093V109.091L65.001 109.092L71.4697 102.623L65.0967 96.249L71.4697 89.877L65.001 83.4072L65 83.4082V83.4062L65.001 83.4072L71.4697 76.9385L84.4082 89.877L90.8779 83.4072L77.9512 70.4814L77.9688 70.4658L77.9551 70.4521L84.4082 64L90.8779 70.4688L97.25 64.0957L103.623 70.4688L110.093 64L116.503 70.4102L116.501 70.4121L116.56 70.4707L103.623 83.4072L109.497 89.2812L154.782 43.9971L149.408 38.623L136.479 51.5508L136.334 51.4053L136.323 51.415L130.001 45.0918L130 45.0928V45.0908L130.001 45.0918L136.47 38.623L130.097 32.249L136.47 25.877L130.001 19.4072L130 19.4082V19.4062L130.001 19.4072L136.47 12.9385L149.408 25.877L155.878 19.4072L142.951 6.48145L142.969 6.46582L142.955 6.45215L149.408 0L155.878 6.46875L162.25 0.0957031L168.623 6.46875L175.093 0L181.503 6.41016Z" fill="#0D0D0D"/>
</svg>
